<?xml version="1.0" encoding="utf-8"?>
<!-- Generator: Adobe Illustrator 19.1.0, SVG Export Plug-In . SVG Version: 6.00 Build 0)  -->
<svg version="1.1" id="Layer_1" xmlns="http://www.w3.org/2000/svg" xmlns:xlink="http://www.w3.org/1999/xlink" x="0px" y="0px"
	 viewBox="0 0 238.9 286.7" style="enable-background:new 0 0 238.9 286.7;" xml:space="preserve">
<style type="text/css">
	.st0{fill:#FFFFFF;}
</style>
<g>
	<g>
		<g>
			<path class="st0" d="M30,235.6c-0.5-2.4-1.2-3-3.9-3h-2.6v6.2h2.1c2.2,0,2.6-0.3,2.8-2H29v4.7h-0.6c-0.3-1.8-0.6-2.1-2.8-2.1
				h-2.1v4.6c0,1.8,0.1,2,1.7,2v0.5h-5V246c1.4,0,1.5-0.2,1.5-2v-9.4c0-1.3,0-1.3-0.1-1.5c-0.1-0.4-0.5-0.6-1.4-0.6V232h10.2
				l0.2,3.6L30,235.6z"/>
			<path class="st0" d="M39.7,246.7c-0.6,0-0.8-0.3-0.8-1.7c-0.3,0.4-0.6,0.6-1,0.9c-0.9,0.6-1.6,0.9-2.6,0.9c-0.9,0-1.5-0.2-2-0.6
				c-0.5-0.5-0.9-1.3-0.9-2.1c0-1.6,1-2.6,2.9-3c1-0.2,2.1-0.4,3.6-0.5v-1.3c0-0.9-0.1-1.4-0.3-1.8c-0.3-0.5-0.8-0.8-1.6-0.8
				c-1.3,0-2,0.6-2.1,1.8c0,0.4-0.1,0.6-0.2,0.7c-0.1,0.1-0.4,0.2-0.7,0.2c-0.7,0-1-0.2-1-0.6c0-0.7,0.5-1.4,1.4-1.9
				c0.8-0.4,1.7-0.6,2.9-0.6c1.3,0,2.2,0.3,2.7,0.9c0.4,0.5,0.6,1.2,0.6,2.3c0,0.1,0,0.1,0,2l0,1.9l0,0.9c0,0.8,0.1,1.6,0.2,1.7
				c0.1,0.2,0.4,0.2,1.1,0.2v0.4C41,246.6,40.1,246.7,39.7,246.7z M38.9,240.9c-1.8,0.2-2.6,0.3-3.4,0.7c-0.9,0.4-1.3,1.2-1.3,2.3
				c0,1.3,0.7,2.1,1.7,2.1c1,0,2.1-0.6,2.6-1.5c0.3-0.6,0.5-1.4,0.5-2.7V240.9z"/>
			<path class="st0" d="M48.5,246.8c-2.8,0-4.8-2.1-4.8-5.2c0-3.3,2-5.5,4.9-5.5c1.2,0,2.2,0.4,3,1c0.5,0.5,0.9,1.1,0.9,1.6
				c0,0.4-0.4,0.6-1,0.6c-0.3,0-0.5-0.1-0.7-0.2c-0.1-0.1-0.1-0.2-0.2-0.7c-0.1-1.1-0.9-1.8-2.1-1.8c-1.8,0-2.9,1.7-2.9,4.6
				c0,3,1.3,4.9,3.4,4.9c1.4,0,2.5-0.8,3.2-2.4l0.5,0.3C51.8,245.8,50.4,246.8,48.5,246.8z"/>
			<path class="st0" d="M61.8,246.7c-0.1-0.5-0.1-1.1-0.1-2.1c-0.8,1.4-2.1,2.2-3.6,2.2c-1.3,0-2.3-0.6-2.7-1.7
				c-0.2-0.5-0.3-1.4-0.3-3.1v-3.3c0-1-0.1-1.5-0.3-1.6c-0.1-0.1-0.3-0.2-0.7-0.2c-0.3,0-0.3,0-0.4,0v-0.4l3.1-0.2
				c-0.1,1.9-0.1,2.3-0.1,3.7v1.7c0,2,0,2.6,0.3,3.3c0.2,0.7,0.8,1.1,1.6,1.1c1.1,0,2.1-0.7,2.6-1.9c0.3-0.7,0.4-1.1,0.4-2.4v-3.1
				c0-1.1-0.1-1.4-0.3-1.6c-0.1-0.1-0.3-0.2-0.7-0.2h-0.4v-0.4l3.1-0.2c-0.1,1.5-0.1,2.8-0.1,3.7v3.8c0,2,0.2,2.4,1.2,2.4h0.1v0.4
				L61.8,246.7z"/>
			<path class="st0" d="M66.2,246.5v-0.4c1.3,0,1.4-0.2,1.4-2.1v-9.8c0-1-0.1-1.5-0.3-1.6c-0.1-0.1-0.4-0.2-1.1-0.2V232l3.2-0.2
				c-0.1,1.3-0.1,2.9-0.1,4v8.2c0,1.9,0.1,2,1.4,2.1v0.4H66.2z"/>
			<path class="st0" d="M76,246.8c-1,0-1.7-0.3-2.1-1c-0.2-0.4-0.3-0.8-0.3-2.3V237h-1.3v-0.5c1.2-0.1,1.8-0.9,2.1-2.8l0.9-0.3
				c0,0.9-0.1,1.6-0.1,2.9h2.4v0.5h-2.4v6.7c0,1.2,0.1,1.7,0.3,2c0.2,0.3,0.5,0.4,1,0.4c0.4,0,0.8-0.1,1.3-0.4l0.2,0.5
				C77.4,246.6,76.8,246.8,76,246.8z"/>
			<path class="st0" d="M84.4,246.8c-2.9,0-4.8-2.1-4.8-5.2c0-3.2,1.9-5.5,4.8-5.5c1.8,0,3.2,0.9,3.8,2.5c0.2,0.5,0.3,1,0.3,2.2
				h-7.1c0,1.4,0.1,2.2,0.5,3c0.6,1.5,1.6,2.2,3,2.2c1.4,0,2.5-0.7,3.3-2.3l0.5,0.3C87.7,245.9,86.4,246.8,84.4,246.8z M86.3,238.1
				c-0.4-1-1.1-1.5-2.1-1.5c-1,0-1.8,0.5-2.3,1.6c-0.3,0.6-0.4,1.1-0.5,2.1h5.3C86.7,239.3,86.6,238.7,86.3,238.1z M84.4,235.2
				l-0.5-0.3l1-2.7h2.1l0,0.3L84.4,235.2z"/>
			<path class="st0" d="M105.1,246.7L105,245c-0.8,1.3-1.9,1.9-3.4,1.9c-1.1,0-2.2-0.5-2.9-1.4c-0.7-0.9-1.1-2.2-1.1-3.7
				c0-3.3,1.8-5.6,4.5-5.6c1.2,0,2.1,0.4,2.9,1.3v-3c0-1.9,0-2-1.5-2V232l3.2-0.2c-0.1,1.3-0.1,2.4-0.1,4v7.8c0,1.9,0,1.9,0.1,2.1
				c0.1,0.3,0.4,0.4,0.9,0.4h0.2v0.4L105.1,246.7z M102.2,236.6c-1.8,0-2.8,1.7-2.8,4.9c0,3.1,0.9,4.8,2.6,4.8c1.9,0,3-1.8,3-4.8
				C105,238.4,104,236.6,102.2,236.6z"/>
			<path class="st0" d="M114.6,246.8c-2.9,0-4.8-2.1-4.8-5.2c0-3.2,1.9-5.5,4.8-5.5c1.8,0,3.2,0.9,3.8,2.5c0.2,0.5,0.3,1,0.3,2.2
				h-7.1c0,1.4,0.1,2.2,0.5,3c0.6,1.5,1.6,2.2,3,2.2c1.4,0,2.5-0.7,3.3-2.3l0.5,0.3C117.9,245.9,116.6,246.8,114.6,246.8z
				 M116.5,238.1c-0.4-1-1.1-1.5-2.1-1.5c-1,0-1.8,0.5-2.3,1.6c-0.3,0.6-0.4,1.1-0.5,2.1h5.3C116.9,239.3,116.8,238.7,116.5,238.1z"
				/>
			<path class="st0" d="M139.5,246.5v-0.4c1.4,0,1.5-0.2,1.5-2.1v-4c0-1.3-0.1-1.9-0.4-2.4c-0.3-0.5-0.7-0.7-1.5-0.7
				c-0.7,0-1.3,0.4-1.9,1.2c-0.5,0.7-0.8,1.5-0.8,2.4v3.6c0,1.9,0.1,2,1.5,2.1v0.4h-4.6v-0.4c1.3,0,1.4-0.2,1.4-2.1v-4.3
				c0-1.9-0.6-2.9-1.8-2.9c-0.8,0-1.4,0.4-2,1.1c-0.5,0.7-0.7,1.3-0.7,2.2v3.9c0,1.9,0.1,2,1.4,2.1v0.4h-4.6v-0.4
				c1.4,0,1.5-0.2,1.5-2.1v-5.4c0-1.5-0.2-1.8-1.4-1.8v-0.4l3-0.2v2.1c0.7-1.4,1.9-2.2,3.3-2.2c1.5,0,2.4,0.8,2.7,2.3
				c0.8-1.6,1.9-2.3,3.4-2.3c1,0,1.8,0.3,2.3,0.9c0.4,0.6,0.6,1.3,0.6,2.6v4.3c0,1.9,0.1,2,1.5,2.1v0.4H139.5z"/>
			<path class="st0" d="M150.6,246.8c-2.9,0-4.8-2.1-4.8-5.2c0-3.2,1.9-5.5,4.8-5.5c1.8,0,3.2,0.9,3.8,2.5c0.2,0.5,0.3,1,0.3,2.2
				h-7.1c0,1.4,0.1,2.2,0.5,3c0.6,1.5,1.6,2.2,3,2.2c1.4,0,2.5-0.7,3.3-2.3l0.5,0.3C154,245.9,152.6,246.8,150.6,246.8z
				 M152.6,238.1c-0.4-1-1.1-1.5-2.1-1.5c-1,0-1.8,0.5-2.3,1.6c-0.3,0.6-0.4,1.1-0.5,2.1h5.3C152.9,239.3,152.8,238.7,152.6,238.1z
				 M150.6,235.2l-0.5-0.3l1-2.7h2.1l0,0.3L150.6,235.2z"/>
			<path class="st0" d="M164.4,246.7l-0.1-1.7c-0.8,1.3-1.9,1.9-3.4,1.9c-1.1,0-2.2-0.5-2.9-1.4c-0.7-0.9-1.1-2.2-1.1-3.7
				c0-3.3,1.8-5.6,4.5-5.6c1.2,0,2.1,0.4,2.9,1.3v-3c0-1.9,0-2-1.5-2V232l3.2-0.2c-0.1,1.3-0.1,2.4-0.1,4v7.8c0,1.9,0,1.9,0.1,2.1
				c0.1,0.3,0.4,0.4,0.9,0.4h0.2v0.4L164.4,246.7z M161.5,236.6c-1.8,0-2.8,1.7-2.8,4.9c0,3.1,0.9,4.8,2.6,4.8c1.9,0,3-1.8,3-4.8
				C164.4,238.4,163.3,236.6,161.5,236.6z"/>
			<path class="st0" d="M174,246.8c-2.9,0-4.8-2.1-4.8-5.2c0-3.2,1.9-5.5,4.8-5.5c1.8,0,3.2,0.9,3.8,2.5c0.2,0.5,0.3,1,0.3,2.2h-7.1
				c0,1.4,0.1,2.2,0.5,3c0.6,1.5,1.6,2.2,3,2.2c1.4,0,2.5-0.7,3.3-2.3l0.5,0.3C177.3,245.9,175.9,246.8,174,246.8z M175.9,238.1
				c-0.4-1-1.1-1.5-2.1-1.5c-1,0-1.8,0.5-2.3,1.6c-0.3,0.6-0.4,1.1-0.5,2.1h5.3C176.3,239.3,176.2,238.7,175.9,238.1z"/>
			<path class="st0" d="M184.9,246.8c-2.8,0-4.8-2.1-4.8-5.2c0-3.3,2-5.5,4.9-5.5c1.2,0,2.2,0.4,3,1c0.5,0.5,0.9,1.1,0.9,1.6
				c0,0.4-0.4,0.6-1,0.6c-0.3,0-0.5-0.1-0.7-0.2c-0.1-0.1-0.1-0.2-0.2-0.7c-0.1-1.1-0.9-1.8-2.1-1.8c-1.8,0-2.9,1.7-2.9,4.6
				c0,3,1.3,4.9,3.3,4.9c1.4,0,2.5-0.8,3.2-2.4l0.5,0.3C188.2,245.8,186.8,246.8,184.9,246.8z"/>
			<path class="st0" d="M190.5,246.5v-0.4c1.4,0,1.5-0.2,1.5-2.1v-5.4c0-1-0.1-1.5-0.3-1.6c-0.2-0.1-0.5-0.2-1.2-0.2v-0.4l3.2-0.2
				c-0.1,1.2-0.1,2.9-0.1,3.8v4.1c0,1.9,0.1,2,1.4,2.1v0.4H190.5z M192.7,234.2c-0.6,0-1.1-0.5-1.1-1.1c0-0.6,0.5-1.1,1.1-1.1
				c0.6,0,1.1,0.5,1.1,1.1C193.9,233.7,193.4,234.2,192.7,234.2z"/>
			<path class="st0" d="M203.3,246.5v-0.4c0.7,0,1-0.1,1.2-0.3c0.1-0.2,0.2-0.3,0.2-0.7c0-0.2,0.1-1,0.1-1.1v-4c0-1-0.1-1.7-0.3-2.2
				c-0.3-0.7-0.9-1.1-1.8-1.1c-0.9,0-1.7,0.4-2.3,1.3c-0.4,0.7-0.7,1.6-0.7,2.4v3.5c0,1.9,0.1,2,1.5,2.1v0.4h-4.6v-0.4
				c1.3,0,1.5-0.2,1.5-2.1v-5.4c0-1.5-0.2-1.8-1.4-1.8v-0.4l3-0.2v2.1c0.9-1.5,1.9-2.1,3.5-2.1c1.3,0,2.1,0.4,2.6,1.2
				c0.4,0.6,0.5,1.3,0.5,2.5v4.2c0,1.9,0.1,2,1.5,2.1v0.4H203.3z"/>
			<path class="st0" d="M214.3,246.8c-2.9,0-4.8-2.1-4.8-5.2c0-3.2,1.9-5.5,4.8-5.5c1.8,0,3.2,0.9,3.8,2.5c0.2,0.5,0.3,1,0.3,2.2
				h-7.1c0,1.4,0.1,2.2,0.5,3c0.6,1.5,1.6,2.2,3,2.2c1.4,0,2.5-0.7,3.3-2.3l0.5,0.3C217.6,245.9,216.3,246.8,214.3,246.8z
				 M216.3,238.1c-0.4-1-1.1-1.5-2.1-1.5c-1,0-1.8,0.5-2.3,1.6c-0.3,0.6-0.4,1.1-0.5,2.1h5.3C216.6,239.3,216.5,238.7,216.3,238.1z"
				/>
			<path class="st0" d="M34.3,260.9c-0.5-2.4-1.2-3-3.9-3h-2.6v6.2H30c2.2,0,2.6-0.3,2.8-2h0.6v4.7h-0.6c-0.3-1.8-0.6-2.1-2.8-2.1
				h-2.1v4.6c0,1.8,0.1,2,1.7,2v0.5h-5v-0.5c1.4,0,1.5-0.2,1.5-2v-9.4c0-1.3,0-1.3-0.1-1.5c-0.1-0.4-0.5-0.6-1.4-0.6v-0.5h10.2
				l0.2,3.6L34.3,260.9z"/>
			<path class="st0" d="M44,272c-0.6,0-0.8-0.3-0.8-1.7c-0.3,0.4-0.6,0.6-1,0.9c-0.9,0.6-1.6,0.9-2.6,0.9c-0.9,0-1.5-0.2-2-0.6
				c-0.5-0.5-0.9-1.3-0.9-2.1c0-1.6,1-2.6,2.9-3c1-0.2,2.1-0.4,3.6-0.5v-1.3c0-0.9-0.1-1.4-0.3-1.8c-0.3-0.5-0.8-0.8-1.6-0.8
				c-1.3,0-2,0.6-2.1,1.8c0,0.4-0.1,0.6-0.2,0.7c-0.1,0.1-0.4,0.2-0.7,0.2c-0.7,0-1-0.2-1-0.6c0-0.7,0.5-1.4,1.4-1.9
				c0.8-0.4,1.7-0.6,2.9-0.6c1.3,0,2.2,0.3,2.7,0.9c0.4,0.5,0.6,1.2,0.6,2.3c0,0.1,0,0.1,0,2l0,1.9l0,0.9c0,0.8,0.1,1.6,0.2,1.7
				c0.1,0.2,0.4,0.2,1.1,0.2v0.4C45.3,271.9,44.4,272,44,272z M43.2,266.3c-1.8,0.2-2.6,0.3-3.4,0.7c-0.9,0.4-1.3,1.2-1.3,2.3
				c0,1.3,0.7,2.1,1.7,2.1c1,0,2.1-0.6,2.6-1.5c0.3-0.6,0.5-1.4,0.5-2.7V266.3z"/>
			<path class="st0" d="M52.8,272.1c-2.8,0-4.8-2.1-4.8-5.2c0-3.3,2-5.5,4.9-5.5c1.2,0,2.2,0.4,3,1c0.5,0.5,0.9,1.1,0.9,1.6
				c0,0.4-0.4,0.6-1,0.6c-0.3,0-0.5-0.1-0.7-0.2c-0.1-0.1-0.1-0.2-0.2-0.7c-0.1-1.1-0.9-1.8-2.1-1.8c-1.8,0-2.9,1.7-2.9,4.6
				c0,3,1.3,4.9,3.4,4.9c1.4,0,2.5-0.8,3.2-2.4l0.5,0.3C56.1,271.1,54.7,272.1,52.8,272.1z"/>
			<path class="st0" d="M66.1,272c-0.1-0.5-0.1-1.1-0.1-2.1c-0.8,1.4-2.1,2.2-3.6,2.2c-1.3,0-2.3-0.6-2.7-1.7
				c-0.2-0.5-0.3-1.4-0.3-3.1V264c0-1-0.1-1.5-0.3-1.6c-0.1-0.1-0.3-0.2-0.7-0.2c-0.3,0-0.3,0-0.4,0v-0.4l3.1-0.2
				c-0.1,1.9-0.1,2.3-0.1,3.7v1.7c0,2,0,2.6,0.3,3.3c0.2,0.7,0.8,1.1,1.6,1.1c1.1,0,2.1-0.7,2.6-1.9c0.3-0.7,0.4-1.1,0.4-2.4V264
				c0-1.1-0.1-1.4-0.3-1.6c-0.1-0.1-0.3-0.2-0.7-0.2h-0.4v-0.4l3.1-0.2c-0.1,1.5-0.1,2.8-0.1,3.7v3.8c0,2,0.2,2.4,1.2,2.4H69v0.4
				L66.1,272z"/>
			<path class="st0" d="M70.5,271.9v-0.4c1.3,0,1.4-0.2,1.4-2.1v-9.8c0-1-0.1-1.5-0.3-1.6c-0.1-0.1-0.4-0.2-1.1-0.2v-0.4l3.2-0.2
				c-0.1,1.3-0.1,2.9-0.1,4v8.2c0,1.9,0.1,2,1.4,2.1v0.4H70.5z"/>
			<path class="st0" d="M80.3,272.1c-1,0-1.7-0.3-2.1-1c-0.2-0.4-0.3-0.8-0.3-2.3v-6.5h-1.3v-0.5c1.2-0.1,1.8-0.9,2.1-2.8l0.9-0.3
				c0,0.9-0.1,1.6-0.1,2.9h2.4v0.5h-2.4v6.7c0,1.2,0.1,1.7,0.3,2c0.2,0.3,0.5,0.4,1,0.4c0.4,0,0.8-0.1,1.3-0.4l0.2,0.5
				C81.7,271.9,81.1,272.1,80.3,272.1z"/>
			<path class="st0" d="M91.6,264.4l-3.8,9.6c-0.2,0.6-0.5,1.1-0.8,1.4c-0.3,0.4-0.9,0.7-1.5,0.7c-0.7,0-1.1-0.3-1.1-1
				c0-0.5,0.2-0.7,0.6-0.7c0.1,0,0.2,0,0.3,0c0.4,0,0.6,0.1,0.7,0.1c0.7,0,1.1-0.3,1.5-1.4l0.4-1.1l-3-7.9c-0.6-1.6-0.8-1.8-1.8-1.9
				v-0.4h4.4v0.4c-0.9,0-1.2,0.2-1.2,0.7c0,0.3,0.1,0.5,0.3,1.1l2.1,6l2.3-5.8c0.2-0.5,0.3-0.8,0.3-1.1c0-0.6-0.4-0.9-1.4-0.9v-0.4
				h3.9v0.4C92.7,262.2,92.2,262.7,91.6,264.4z"/>
			<path class="st0" d="M106.7,272.1c-2.9,0-4.8-2.1-4.8-5.2c0-1.7,0.5-3.2,1.5-4.2c0.8-0.9,2.1-1.3,3.5-1.3c2.9,0,4.9,2.1,4.9,5.2
				C111.7,270,109.8,272.1,106.7,272.1z M106.7,261.9c-1.9,0-3,1.7-3,4.8c0,3.1,1.1,5,3,5c2,0,3-1.7,3-4.8
				C109.8,263.7,108.7,261.9,106.7,261.9z"/>
			<path class="st0" d="M119.6,259.2c-0.3,0-0.5-0.1-0.7-0.2c-0.1-0.1-0.1-0.1-0.2-0.7c-0.1-0.6-0.4-0.9-0.9-0.9
				c-0.8,0-1.2,0.6-1.2,1.9c0,0.3,0,0.5,0,1.5c0,0.2,0,0.5,0,0.8h2.7v0.5h-2.7v7.1c0,1.9,0.1,2,1.6,2.1v0.4h-4.7v-0.4
				c1.3,0,1.4-0.2,1.4-2.1v-7.1h-1.5v-0.5h1.5c0-0.8,0-1.5,0-1.9c0-0.9,0.2-1.4,0.7-1.9c0.5-0.5,1.4-0.8,2.4-0.8
				c1.4,0,2.5,0.6,2.5,1.5C120.6,259,120.2,259.2,119.6,259.2z"/>
			<path class="st0" d="M139.5,271.9v-0.5c1.4,0,1.5-0.2,1.5-2v-11l-5.2,13.3h-0.9l-5.3-13.3v9.7c0,1.8,0.1,2.4,0.3,2.7
				c0.2,0.4,0.7,0.5,1.5,0.5v0.5h-4.3v-0.5c0.7,0,1.1-0.2,1.4-0.5c0.3-0.4,0.4-1.2,0.4-2.7v-8.2c0-1-0.1-1.5-0.3-1.7
				c-0.2-0.2-0.4-0.3-1.2-0.3v-0.5h3.8l4.7,11.9l4.7-11.9h3.7v0.5c-1.4,0.1-1.5,0.2-1.5,2.1v9.4c0,1.8,0.1,2,1.5,2v0.5H139.5z"/>
			<path class="st0" d="M151.2,272.1c-2.9,0-4.8-2.1-4.8-5.2c0-3.2,1.9-5.5,4.8-5.5c1.8,0,3.2,0.9,3.8,2.5c0.2,0.5,0.3,1,0.3,2.2
				h-7.1c0,1.4,0.1,2.2,0.5,3c0.6,1.5,1.6,2.2,3,2.2c1.4,0,2.5-0.7,3.3-2.3l0.5,0.3C154.5,271.3,153.1,272.1,151.2,272.1z
				 M153.1,263.4c-0.4-1-1.1-1.5-2.1-1.5c-1,0-1.8,0.5-2.3,1.6c-0.3,0.6-0.4,1.1-0.5,2.1h5.3C153.5,264.6,153.4,264,153.1,263.4z"/>
			<path class="st0" d="M165,272l-0.1-1.7c-0.8,1.3-1.9,1.9-3.4,1.9c-1.1,0-2.2-0.5-2.9-1.4c-0.7-0.9-1.1-2.2-1.1-3.7
				c0-3.3,1.8-5.6,4.5-5.6c1.2,0,2.1,0.4,2.9,1.3v-3c0-1.9,0-2-1.5-2v-0.4l3.2-0.2c-0.1,1.3-0.1,2.4-0.1,4v7.8c0,1.9,0,1.9,0.1,2.1
				c0.1,0.3,0.4,0.4,0.9,0.4h0.2v0.4L165,272z M162,261.9c-1.8,0-2.8,1.7-2.8,4.9c0,3.1,0.9,4.8,2.6,4.8c1.9,0,3-1.8,3-4.8
				C164.9,263.7,163.9,261.9,162,261.9z"/>
			<path class="st0" d="M169.3,271.9v-0.4c1.4,0,1.5-0.2,1.5-2.1V264c0-1-0.1-1.5-0.3-1.6c-0.2-0.1-0.5-0.2-1.2-0.2v-0.4l3.2-0.2
				c-0.1,1.2-0.1,2.9-0.1,3.8v4.1c0,1.9,0.1,2,1.4,2.1v0.4H169.3z M171.6,259.5c-0.6,0-1.1-0.5-1.1-1.1c0-0.6,0.5-1.1,1.1-1.1
				c0.6,0,1.1,0.5,1.1,1.1C172.7,259,172.2,259.5,171.6,259.5z"/>
			<path class="st0" d="M180.6,272.1c-2.8,0-4.8-2.1-4.8-5.2c0-3.3,2-5.5,4.9-5.5c1.2,0,2.2,0.4,3,1c0.5,0.5,0.9,1.1,0.9,1.6
				c0,0.4-0.4,0.6-1,0.6c-0.3,0-0.5-0.1-0.7-0.2c-0.1-0.1-0.1-0.2-0.2-0.7c-0.1-1.1-0.9-1.8-2.1-1.8c-1.8,0-2.9,1.7-2.9,4.6
				c0,3,1.3,4.9,3.3,4.9c1.4,0,2.5-0.8,3.2-2.4l0.5,0.3C183.9,271.1,182.5,272.1,180.6,272.1z"/>
			<path class="st0" d="M186.2,271.9v-0.4c1.4,0,1.5-0.2,1.5-2.1V264c0-1-0.1-1.5-0.3-1.6c-0.2-0.1-0.5-0.2-1.2-0.2v-0.4l3.2-0.2
				c-0.1,1.2-0.1,2.9-0.1,3.8v4.1c0,1.9,0.1,2,1.4,2.1v0.4H186.2z M188.4,259.5c-0.6,0-1.1-0.5-1.1-1.1c0-0.6,0.5-1.1,1.1-1.1
				c0.6,0,1.1,0.5,1.1,1.1C189.6,259,189.1,259.5,188.4,259.5z"/>
			<path class="st0" d="M199,271.9v-0.4c0.7,0,1-0.1,1.2-0.3c0.1-0.2,0.2-0.3,0.2-0.7c0-0.2,0.1-1,0.1-1.1v-4c0-1-0.1-1.7-0.3-2.2
				c-0.3-0.7-0.9-1.1-1.8-1.1c-0.9,0-1.7,0.4-2.3,1.3c-0.4,0.7-0.7,1.6-0.7,2.4v3.5c0,1.9,0.1,2,1.5,2.1v0.4h-4.6v-0.4
				c1.3,0,1.5-0.2,1.5-2.1V264c0-1.5-0.2-1.8-1.4-1.8v-0.4l3-0.2v2.1c0.9-1.5,1.9-2.1,3.5-2.1c1.3,0,2.1,0.4,2.6,1.2
				c0.4,0.6,0.5,1.3,0.5,2.5v4.2c0,1.9,0.1,2,1.5,2.1v0.4H199z"/>
			<path class="st0" d="M210,272.1c-2.9,0-4.8-2.1-4.8-5.2c0-3.2,1.9-5.5,4.8-5.5c1.8,0,3.2,0.9,3.8,2.5c0.2,0.5,0.3,1,0.3,2.2H207
				c0,1.4,0.1,2.2,0.5,3c0.6,1.5,1.6,2.2,3,2.2c1.4,0,2.5-0.7,3.3-2.3l0.5,0.3C213.3,271.3,212,272.1,210,272.1z M212,263.4
				c-0.4-1-1.1-1.5-2.1-1.5c-1,0-1.8,0.5-2.3,1.6c-0.3,0.6-0.4,1.1-0.5,2.1h5.3C212.3,264.6,212.2,264,212,263.4z"/>
		</g>
	</g>
</g>
<g>
	<g>
		<path class="st0" d="M34.2,197.1c-0.2-1.3-0.3-3-0.3-5.7c-2.2,3.8-5.8,6-9.9,6c-3.6,0-6.3-1.7-7.4-4.7c-0.6-1.5-0.8-3.8-0.8-8.6
			v-9.2c0-2.9-0.2-4.1-0.8-4.6c-0.3-0.3-0.8-0.4-1.9-0.5c-0.7,0-0.7,0-1,0v-1.2l8.6-0.6c-0.3,5.2-0.3,6.5-0.3,10.3v4.8
			c0,5.6,0.1,7.1,0.8,9c0.7,2.1,2.2,3.1,4.5,3.1c3.1,0,5.8-2,7.2-5.4c0.8-1.9,1-3.1,1-6.6v-8.5c0-2.9-0.2-4-0.8-4.5
			c-0.3-0.3-0.9-0.5-1.9-0.6h-1v-1.2l8.6-0.6c-0.2,4.2-0.3,7.8-0.3,10.3v10.5c0,5.6,0.5,6.5,3.4,6.5h0.4v1.2L34.2,197.1z"/>
		<path class="st0" d="M56.3,162c3.3-4.2,8.2-6.3,14.2-6.3c6,0,10.8,2.1,14.2,6.3c3.1,3.9,4.6,8.7,4.6,14.5c0,5.8-1.6,10.7-4.6,14.5
			c-3.4,4.3-8.1,6.4-14.2,6.4c-6,0-10.9-2.2-14.2-6.4c-3.1-3.9-4.6-8.7-4.6-14.5C51.7,170.7,53.2,165.9,56.3,162z M60.3,189.8
			c2.2,3.9,5.7,6.1,10.2,6.1c4.4,0,7.9-2.1,10.2-6.1c2-3.6,3-7.9,3-13.3c0-5.4-1-9.7-3-13.3c-2.2-4-5.7-6.1-10.2-6.1
			c-4.4,0-7.9,2.1-10.2,6.1c-2,3.7-3,8-3,13.3C57.3,181.8,58.3,186.1,60.3,189.8z"/>
		<path class="st0" d="M101.8,188.8c0,3.3,0.2,4.7,0.7,5.5c0.6,0.8,1.4,1.2,2.7,1.2c1.2,0,2.3-0.3,3.5-1l0.5,1.4
			c-1.8,0.9-3.6,1.4-5.6,1.4c-2.7,0-4.8-0.9-5.7-2.7c-0.6-1.1-0.8-2.3-0.8-6.4v-18h-3.5v-1.3c3.3-0.3,4.9-2.4,5.8-7.7l2.6-0.7
			c-0.1,2.4-0.2,4.5-0.2,8.2h6.7v1.5h-6.7V188.8z"/>
		<path class="st0" d="M120.1,188.8c0,3.3,0.2,4.7,0.7,5.5c0.6,0.8,1.4,1.2,2.7,1.2c1.2,0,2.3-0.3,3.5-1l0.5,1.4
			c-1.8,0.9-3.6,1.4-5.6,1.4c-2.7,0-4.8-0.9-5.7-2.7c-0.6-1.1-0.8-2.3-0.8-6.4v-18H112v-1.3c3.3-0.3,4.9-2.4,5.8-7.7l2.6-0.7
			c-0.1,2.4-0.2,4.5-0.2,8.2h6.7v1.5h-6.7V188.8z"/>
		<path class="st0" d="M157.2,196.6c-2.2,0.3-4.6,0.6-5.7,0.6c-1.7,0-2.1-0.9-2.3-4.6c-0.9,1-1.6,1.6-2.7,2.4
			c-2.4,1.8-4.4,2.4-7.2,2.4c-2.4,0-4.3-0.6-5.7-1.7c-1.5-1.3-2.4-3.6-2.4-5.9c0-4.4,2.8-7.2,8.2-8.4c2.9-0.7,5.8-1.1,9.9-1.3v-3.5
			c0-2.6-0.2-3.9-0.8-5.1c-0.7-1.4-2.3-2.2-4.6-2.2c-3.7,0-5.5,1.7-5.8,5.1c-0.1,1.2-0.2,1.6-0.6,1.9c-0.4,0.3-1.1,0.4-1.9,0.4
			c-1.9,0-2.7-0.5-2.7-1.7c0-2,1.4-4,3.8-5.3c2.1-1.2,4.8-1.8,8.1-1.8c3.6,0,6.1,0.8,7.4,2.4c1.1,1.4,1.6,3.2,1.6,6.3
			c0,0.2,0,0.2-0.1,5.6l-0.1,5.3l-0.1,2.6c0,2.3,0.3,4.3,0.6,4.8c0.3,0.4,1,0.6,3.1,0.6V196.6z M149.1,181.2c-4.9,0.4-7.1,0.9-9.3,2
			c-2.4,1.2-3.7,3.4-3.7,6.3c0,3.5,1.9,5.9,4.7,5.9c2.8,0,5.7-1.7,7.1-4.1c0.9-1.6,1.3-3.9,1.3-7.6V181.2z"/>
		<path class="st0" d="M171.1,196.9h-2.9l-6.9-23c-0.9-3.2-1.6-3.8-4.3-4v-1.2h12.3v1.2c-2.7,0.1-3.7,0.7-3.7,2.1
			c0,0.4,0.2,1.3,0.5,2.4l5,17.4l7.3-22.4h2.3l7,22.4l4.8-16.3c0.4-1.4,0.7-2.4,0.7-3.2c0-0.9-0.6-1.7-1.6-2
			c-0.7-0.2-1.1-0.3-2.5-0.4v-1.2H200v1.2c-3.1,0.2-4.1,1.2-5.4,5.5l-6.7,21.5h-2.8l-6.9-21.3L171.1,196.9z"/>
		<path class="st0" d="M226.5,196.6c-2.2,0.3-4.6,0.6-5.7,0.6c-1.7,0-2.1-0.9-2.3-4.6c-0.9,1-1.6,1.6-2.7,2.4
			c-2.4,1.8-4.4,2.4-7.2,2.4c-2.4,0-4.3-0.6-5.7-1.7c-1.5-1.3-2.4-3.6-2.4-5.9c0-4.4,2.8-7.2,8.2-8.4c2.9-0.7,5.8-1.1,9.9-1.3v-3.5
			c0-2.6-0.2-3.9-0.8-5.1c-0.7-1.4-2.3-2.2-4.6-2.2c-3.7,0-5.6,1.7-5.8,5.1c-0.1,1.2-0.2,1.6-0.6,1.9c-0.4,0.3-1.1,0.4-1.9,0.4
			c-1.9,0-2.7-0.5-2.7-1.7c0-2,1.4-4,3.8-5.3c2.1-1.2,4.8-1.8,8.1-1.8c3.6,0,6.1,0.8,7.4,2.4c1.1,1.4,1.6,3.2,1.6,6.3
			c0,0.2,0,0.2-0.1,5.6l-0.1,5.3l-0.1,2.6c0,2.3,0.3,4.3,0.6,4.8c0.3,0.4,1,0.6,3.1,0.6V196.6z M218.4,181.2c-4.9,0.4-7.1,0.9-9.3,2
			c-2.4,1.2-3.7,3.4-3.7,6.3c0,3.5,1.9,5.9,4.7,5.9c2.8,0,5.7-1.7,7.1-4.1c0.9-1.6,1.3-3.9,1.3-7.6V181.2z"/>
	</g>
	<path class="st0" d="M158.5,30.7c0-1.9,0-6.7,0-6.7s-10.5,0-12.8,0c-5.4-8.8-14.7-13.7-26.4-13.7c-11.7,0-20.9,4.9-26.4,13.7
		c-2.3,0-12.8,0-12.8,0s0,4.8,0,6.7c-3.3,0-12.5,0-12.5,0V129H171V30.7C171,30.7,161.8,30.7,158.5,30.7z M165.5,123.5H73.2V36.2
		c3.3,0,12.5,0,12.5,0s0-4.8,0-6.7c3.2,0,10.4,0,10.4,0l0.8-1.4c5.5-10.1,15.2-12.2,22.4-12.2c7.2,0,16.9,2.1,22.4,12.2l0.8,1.4
		c0,0,7.2,0,10.4,0c0,1.9,0,6.7,0,6.7s9.2,0,12.5,0V123.5z M81.6,100.3v5H157v-5h-2.9l-0.8-30.8c0.2,0.1,0.5,0.2,0.8,0.2
		c0.9,0,1.7-0.8,1.7-1.7c0-0.5-0.2-0.9-0.5-1.2h1.4v-3h-75v3h1.4c-0.3,0.3-0.5,0.7-0.5,1.2c0,0.9,0.8,1.7,1.7,1.7
		c0.3,0,0.5-0.1,0.8-0.2l-0.7,30.8H81.6z M138.5,69.7c0.9,0,1.7-0.8,1.7-1.7c0-0.5-0.2-0.9-0.5-1.2h6.2c-0.3,0.3-0.5,0.7-0.5,1.2
		c0,0.9,0.8,1.7,1.7,1.7c0.3,0,0.5-0.1,0.8-0.2l-0.8,30.8h-8.6l-0.7-30.8C138,69.6,138.3,69.7,138.5,69.7z M122.8,69.7
		c0.9,0,1.7-0.8,1.7-1.7c0-0.5-0.2-0.9-0.5-1.2h6.2c-0.3,0.3-0.5,0.7-0.5,1.2c0,0.9,0.8,1.7,1.7,1.7c0.3,0,0.5-0.1,0.8-0.2
		l-0.8,30.8h-8.6l-0.7-30.8C122.3,69.6,122.6,69.7,122.8,69.7z M107.2,69.7c0.9,0,1.7-0.8,1.7-1.7c0-0.5-0.2-0.9-0.5-1.2h6.2
		c-0.3,0.3-0.5,0.7-0.5,1.2c0,0.9,0.8,1.7,1.7,1.7c0.3,0,0.5-0.1,0.8-0.2l-0.7,30.8h-8.7l-0.8-30.8
		C106.6,69.6,106.9,69.7,107.2,69.7z M91.5,69.7c0.9,0,1.7-0.8,1.7-1.7c0-0.5-0.2-0.9-0.5-1.2h6.1c-0.3,0.3-0.5,0.7-0.5,1.2
		c0,0.9,0.8,1.7,1.7,1.7c0.3,0,0.5-0.1,0.8-0.2l-0.7,30.8h-8.7l-0.7-30.8C91,69.6,91.2,69.7,91.5,69.7z M78.9,111.8h80.9v-3H78.9
		V111.8z M76.5,117.1h85.6v-3H76.5V117.1z M78,57l1.9,5.2c0,0,37.7-13.6,39.5-14.2c1.8,0.6,39.5,14.2,39.5,14.2l1.9-5.2l-41.4-14.9
		L78,57z"/>
</g>
</svg>
