<?xml version="1.0" encoding="utf-8"?>
<!-- Generator: Adobe Illustrator 19.1.0, SVG Export Plug-In . SVG Version: 6.00 Build 0)  -->
<svg version="1.1" xmlns="http://www.w3.org/2000/svg" xmlns:xlink="http://www.w3.org/1999/xlink" x="0px" y="0px"
	 viewBox="0 0 612 265.8" style="enable-background:new 0 0 612 265.8;" xml:space="preserve">
<style type="text/css">
	.st0{fill:#8A7967;}
	.st1{fill:#98002E;}
</style>
<g id="Background">
</g>
<g id="Guides">
</g>
<g id="Foreground">
</g>
<g id="Layer_1">
	<g>
		<path class="st0" d="M237.4,147.3c-0.3-2.4-0.5-5.5-0.5-10.5c-4,6.9-10.6,11-18.2,11c-6.5,0-11.5-3.2-13.6-8.6
			c-1-2.8-1.4-6.9-1.4-15.8v-16.8c0-5.3-0.4-7.5-1.5-8.4c-0.6-0.6-1.5-0.8-3.5-0.9c-1.3,0-1.3,0-1.8,0V95l15.8-1
			c-0.5,9.5-0.6,11.9-0.6,19v8.9c0,10.3,0.2,13.1,1.4,16.6c1.2,3.8,4.1,5.7,8.3,5.7c5.6,0,10.6-3.7,13.3-9.9c1.5-3.5,1.8-5.7,1.8-12
			v-15.7c0-5.4-0.3-7.4-1.5-8.3c-0.6-0.6-1.6-0.9-3.5-1H230V95l15.8-1c-0.3,7.7-0.5,14.4-0.5,19v19.3c0,10.2,0.9,12.1,6.2,12.1h0.7
			v2.2L237.4,147.3z"/>
		<path class="st0" d="M278,82.8c6.1-7.7,15-11.6,26-11.6c11.1,0,19.8,3.9,26,11.6c5.6,7.1,8.5,16,8.5,26.8
			c0,10.7-2.9,19.7-8.5,26.6c-6.3,7.9-14.9,11.7-26,11.7c-11,0-20-4.1-26-11.7c-5.6-7.1-8.5-16-8.5-26.6
			C269.6,98.8,272.3,90,278,82.8z M285.4,134.1c4.1,7.3,10.5,11.1,18.7,11.1c8.2,0,14.6-3.9,18.7-11.1c3.7-6.6,5.5-14.6,5.5-24.5
			c0-9.9-1.8-17.9-5.5-24.5c-4.1-7.3-10.5-11.1-18.7-11.1c-8.2,0-14.6,3.9-18.7,11.1c-3.7,6.7-5.5,14.8-5.5,24.5
			C279.9,119.2,281.7,127.2,285.4,134.1z"/>
		<path class="st0" d="M361.8,132.1c0,6,0.3,8.7,1.3,10.1c1,1.4,2.7,2.1,5,2.1c2.2,0,4.2-0.5,6.4-1.8l0.9,2.6
			c-3.4,1.7-6.6,2.6-10.3,2.6c-5,0-8.8-1.7-10.5-5c-1.1-2-1.4-4.3-1.4-11.8V97.8h-6.4v-2.3c6-0.5,9.1-4.5,10.6-14.1l4.7-1.3
			c-0.2,4.4-0.3,8.3-0.3,15H374v2.8h-12.3V132.1z"/>
		<path class="st0" d="M395.4,132.1c0,6,0.3,8.7,1.3,10.1c1,1.4,2.7,2.1,5,2.1c2.2,0,4.2-0.5,6.4-1.8l0.9,2.6
			c-3.4,1.7-6.6,2.6-10.3,2.6c-5,0-8.8-1.7-10.5-5c-1.1-2-1.4-4.3-1.4-11.8V97.8h-6.4v-2.3c6-0.5,9.1-4.5,10.6-14.1l4.7-1.3
			c-0.2,4.4-0.3,8.3-0.3,15h12.3v2.8h-12.3V132.1z"/>
		<path class="st0" d="M463.7,146.4c-4,0.6-8.5,1-10.5,1c-3.1,0-3.9-1.6-4.3-8.5c-1.6,1.8-3,3-5,4.4c-4.5,3.3-8.1,4.4-13.3,4.4
			c-4.5,0-7.9-1-10.4-3.2c-2.8-2.5-4.5-6.5-4.5-10.8c0-8.1,5.1-13.3,15-15.5c5.3-1.2,10.7-1.9,18.2-2.5v-6.4c0-4.7-0.4-7.2-1.4-9.3
			c-1.3-2.7-4.2-4-8.4-4c-6.7,0-10.2,3.1-10.6,9.4c-0.1,2.1-0.3,2.9-1.1,3.5c-0.7,0.5-2,0.8-3.6,0.8c-3.5,0-5-0.9-5-3.1
			c0-3.7,2.7-7.4,6.9-9.8c3.9-2.1,8.9-3.3,14.9-3.3c6.5,0,11.2,1.5,13.7,4.5c2,2.5,3,5.9,3,11.5c0,0.3,0,0.3-0.2,10.3l-0.1,9.7
			l-0.1,4.7c0,4.3,0.5,8,1.1,8.8c0.6,0.8,1.8,1.1,5.7,1.1V146.4z M448.8,118.1c-9.1,0.8-13.1,1.6-17.2,3.7
			c-4.5,2.2-6.8,6.2-6.8,11.6c0,6.4,3.5,10.8,8.6,10.8c5.2,0,10.5-3.1,13.1-7.5c1.6-2.9,2.3-7.1,2.3-13.9V118.1z"/>
		<path class="st0" d="M489.2,147h-5.3l-12.7-42.4c-1.7-5.8-3-7-8-7.3V95h22.7v2.2c-4.9,0.2-6.8,1.2-6.8,3.8c0,0.8,0.3,2.4,0.9,4.5
			l9.2,32.1l13.5-41.3h4.2l13,41.3l8.9-30c0.8-2.6,1.2-4.5,1.2-5.9c0-1.7-1-3.1-2.9-3.7c-1.2-0.4-1.9-0.5-4.6-0.7V95h20v2.2
			c-5.6,0.3-7.6,2.2-10,10.1L520.1,147h-5.2l-12.8-39.2L489.2,147z"/>
		<path class="st0" d="M591.1,146.4c-4,0.6-8.5,1-10.5,1c-3.1,0-3.9-1.6-4.3-8.5c-1.6,1.8-3,3-5,4.4c-4.5,3.3-8.1,4.4-13.3,4.4
			c-4.5,0-7.9-1-10.4-3.2c-2.8-2.5-4.5-6.5-4.5-10.8c0-8.1,5.1-13.3,15-15.5c5.3-1.2,10.7-1.9,18.2-2.5v-6.4c0-4.7-0.4-7.2-1.4-9.3
			c-1.3-2.7-4.2-4-8.4-4c-6.7,0-10.2,3.1-10.6,9.4c-0.1,2.1-0.3,2.9-1.1,3.5c-0.7,0.5-2,0.8-3.6,0.8c-3.5,0-5-0.9-5-3.1
			c0-3.7,2.7-7.4,6.9-9.8c3.9-2.1,8.9-3.3,14.9-3.3c6.5,0,11.2,1.5,13.7,4.5c2,2.5,3,5.9,3,11.5c0,0.3,0,0.3-0.2,10.3l-0.1,9.7
			l-0.1,4.7c0,4.3,0.5,8,1.1,8.8c0.6,0.8,1.8,1.1,5.7,1.1V146.4z M576.3,118.1c-9.1,0.8-13.1,1.6-17.2,3.7
			c-4.5,2.2-6.8,6.2-6.8,11.6c0,6.4,3.5,10.8,8.6,10.8c5.2,0,10.5-3.1,13.1-7.5c1.6-2.9,2.3-7.1,2.3-13.9V118.1z"/>
	</g>
	<g>
		<path class="st0" d="M56.4,29.2c-2.9,0-16.3,0-16.3,0s0,6.1,0,8.6c-4.3,0-16,0-16,0v125.6h132V37.8c0,0-11.7,0-16,0
			c0-2.4,0-8.6,0-8.6s-13.4,0-16.3,0c-7-11.2-18.8-17.5-33.7-17.5C75.2,11.8,63.4,18,56.4,29.2z M58.4,36.2h2.1l1-1.8
			c7-12.9,19.5-15.6,28.7-15.6c9.2,0,21.7,2.7,28.7,15.6l1,1.8c0,0,9.2,0,13.3,0c0,2.4,0,8.6,0,8.6s11.7,0,16,0
			c0,6.4,0,105.1,0,111.5c-6.4,0-111.5,0-118,0c0-6.4,0-105.1,0-111.5c4.3,0,16,0,16,0s0-6.1,0-8.6C51.2,36.2,58.4,36.2,58.4,36.2z"
			/>
	</g>
	<g>
		<g>
			<polygon class="st0" points="38.5,137.5 141.8,137.5 141.8,141.4 38.5,141.4 38.5,137.5 			"/>
			<path class="st0" d="M90.1,139.4"/>
		</g>
	</g>
	<g>
		<g>
			<polygon class="st0" points="35.4,144.3 144.8,144.3 144.8,148.1 35.4,148.1 35.4,144.3 			"/>
			<path class="st0" d="M90.1,146.2"/>
		</g>
	</g>
	<g>
		<path class="st0" d="M88.9,52.7L37.3,71.3l2.4,6.6c0,0,48.2-17.3,50.5-18.1c2.3,0.8,50.5,18.1,50.5,18.1l2.4-6.6l-52.9-19
			L88.9,52.7z"/>
	</g>
	<path class="st0" d="M134.6,126.6l-1-39.4c0.3,0.2,0.6,0.3,1,0.3c1.2,0,2.2-1,2.2-2.2c0-0.6-0.2-1.1-0.6-1.5h1.8V80H42.2v3.9H44
		c-0.4,0.4-0.6,0.9-0.6,1.5c0,1.2,1,2.2,2.2,2.2c0.4,0,0.7-0.1,1-0.2l-0.9,39.3h-3.6v6.4h96.3v-6.4H134.6z M65.6,126.6H54.5l-1-39.3
		c0.3,0.2,0.6,0.2,1,0.2c1.2,0,2.2-1,2.2-2.2c0-0.6-0.2-1.1-0.6-1.5H64c-0.4,0.4-0.6,0.9-0.6,1.5c0,1.2,1,2.2,2.2,2.2
		c0.4,0,0.7-0.1,1-0.2L65.6,126.6z M85.6,126.6H74.6l-1-39.3c0.3,0.1,0.6,0.2,1,0.2c1.2,0,2.2-1,2.2-2.2c0-0.6-0.2-1.1-0.6-1.5h7.9
		c-0.4,0.4-0.6,0.9-0.6,1.5c0,1.2,1,2.2,2.2,2.2c0.4,0,0.7-0.1,1-0.2L85.6,126.6z M105.6,126.6h-11l-1-39.3c0.3,0.1,0.6,0.2,0.9,0.2
		c1.2,0,2.2-1,2.2-2.2c0-0.6-0.2-1.1-0.6-1.5h7.9c-0.4,0.4-0.6,0.9-0.6,1.5c0,1.2,1,2.2,2.2,2.2c0.4,0,0.7-0.1,1-0.3L105.6,126.6z
		 M125.7,126.6h-11l-1-39.3c0.3,0.1,0.6,0.2,1,0.2c1.2,0,2.2-1,2.2-2.2c0-0.6-0.2-1.1-0.6-1.5h7.9c-0.4,0.4-0.6,0.9-0.6,1.5
		c0,1.2,1,2.2,2.2,2.2c0.3,0,0.7-0.1,1-0.2L125.7,126.6z"/>
	<g>
		<path class="st1" d="M222,196.2c-0.7-3.8-1.9-4.7-6.1-4.7h-4.1v9.7h3.4c3.5,0,4.1-0.4,4.4-3.2h0.9v7.4h-0.9
			c-0.4-2.8-1-3.2-4.4-3.2h-3.4v7.3c0,2.9,0.2,3.2,2.7,3.2v0.8h-7.9v-0.8c2.2-0.1,2.4-0.3,2.4-3.2v-14.9c0-2-0.1-2-0.2-2.3
			c-0.2-0.7-0.8-0.9-2.2-0.9v-0.8h16l0.4,5.6L222,196.2z"/>
		<path class="st1" d="M237.3,213.6c-0.9,0-1.2-0.5-1.3-2.6c-0.5,0.6-0.9,0.9-1.5,1.4c-1.4,1-2.5,1.4-4.1,1.4c-1.4,0-2.4-0.3-3.2-1
			c-0.9-0.8-1.4-2-1.4-3.3c0-2.5,1.6-4.1,4.6-4.8c1.6-0.4,3.3-0.6,5.6-0.8v-2c0-1.5-0.1-2.2-0.4-2.9c-0.4-0.8-1.3-1.2-2.6-1.2
			c-2.1,0-3.2,0.9-3.3,2.9c0,0.7-0.1,0.9-0.3,1.1c-0.2,0.2-0.6,0.3-1.1,0.3c-1.1,0-1.5-0.3-1.5-0.9c0-1.1,0.8-2.3,2.1-3
			c1.2-0.7,2.7-1,4.6-1c2,0,3.5,0.5,4.2,1.4c0.6,0.8,0.9,1.8,0.9,3.6c0,0.1,0,0.1-0.1,3.2l0,3l0,1.5c0,1.3,0.2,2.5,0.3,2.7
			c0.2,0.3,0.6,0.3,1.8,0.3v0.7C239.3,213.5,238,213.6,237.3,213.6z M236,204.5c-2.8,0.3-4,0.5-5.3,1.1c-1.4,0.7-2.1,1.9-2.1,3.6
			c0,2,1.1,3.3,2.7,3.3c1.6,0,3.2-0.9,4-2.3c0.5-0.9,0.7-2.2,0.7-4.3V204.5z"/>
		<path class="st1" d="M251,213.8c-4.4,0-7.5-3.3-7.5-8.2c0-5.1,3.1-8.6,7.7-8.6c1.8,0,3.5,0.6,4.7,1.6c0.8,0.8,1.4,1.7,1.4,2.5
			c0,0.6-0.6,1-1.6,1c-0.4,0-0.9-0.1-1.1-0.3c-0.2-0.2-0.2-0.3-0.3-1.1c-0.2-1.7-1.5-2.9-3.3-2.9c-2.9,0-4.6,2.6-4.6,7.2
			c0,4.8,2,7.7,5.3,7.7c2.3,0,4-1.3,5.1-3.8l0.7,0.4C256.2,212.2,254.1,213.8,251,213.8z"/>
		<path class="st1" d="M272,213.6c-0.1-0.8-0.2-1.7-0.2-3.2c-1.2,2.1-3.3,3.4-5.6,3.4c-2,0-3.6-1-4.2-2.7c-0.3-0.9-0.4-2.1-0.4-4.9
			V201c0-1.6-0.1-2.3-0.5-2.6c-0.2-0.2-0.5-0.3-1.1-0.3c-0.4,0-0.4,0-0.6,0v-0.7l4.9-0.3c-0.2,2.9-0.2,3.7-0.2,5.9v2.7
			c0,3.2,0.1,4,0.4,5.1c0.4,1.2,1.3,1.8,2.6,1.8c1.7,0,3.3-1.1,4.1-3.1c0.5-1.1,0.6-1.8,0.6-3.7V201c0-1.7-0.1-2.3-0.5-2.6
			c-0.2-0.2-0.5-0.3-1.1-0.3h-0.6v-0.7l4.9-0.3c-0.1,2.4-0.2,4.4-0.2,5.9v6c0,3.2,0.3,3.7,1.9,3.7h0.2v0.7L272,213.6z"/>
		<path class="st1" d="M279,213.3v-0.7c2.1-0.1,2.2-0.3,2.2-3.2V194c0-1.5-0.1-2.3-0.5-2.6c-0.2-0.2-0.7-0.3-1.8-0.3v-0.7l5-0.3
			c-0.1,2.1-0.2,4.6-0.2,6.3v12.9c0,2.9,0.2,3.2,2.3,3.2v0.7H279z"/>
		<path class="st1" d="M294.4,213.7c-1.5,0-2.7-0.5-3.2-1.5c-0.3-0.6-0.4-1.3-0.4-3.7v-10.2h-2v-0.7c1.9-0.2,2.8-1.4,3.3-4.4
			l1.5-0.4c-0.1,1.4-0.1,2.6-0.1,4.6h3.8v0.9h-3.8v10.6c0,1.9,0.1,2.7,0.4,3.1c0.3,0.4,0.8,0.7,1.5,0.7c0.7,0,1.3-0.2,2-0.6l0.3,0.8
			C296.5,213.4,295.5,213.7,294.4,213.7z"/>
		<path class="st1" d="M307.5,213.8c-4.5,0-7.6-3.3-7.6-8.2c0-5.1,3-8.6,7.5-8.6c2.9,0,5,1.5,6,4c0.3,0.9,0.4,1.6,0.5,3.5h-11.1
			c0,2.2,0.2,3.4,0.7,4.7c0.9,2.3,2.5,3.5,4.7,3.5c2.2,0,3.9-1.2,5.2-3.6l0.7,0.4C312.8,212.4,310.6,213.8,307.5,213.8z
			 M310.6,200.1c-0.7-1.5-1.8-2.3-3.2-2.3c-1.5,0-2.8,0.9-3.6,2.5c-0.5,0.9-0.7,1.7-0.9,3.4h8.3C311.2,201.9,311,201,310.6,200.1z
			 M307.5,195.5l-0.8-0.4l1.5-4.2h3.2l0.1,0.5L307.5,195.5z"/>
		<path class="st1" d="M340.1,213.6l-0.1-2.7c-1.3,2-3.1,2.9-5.4,2.9c-1.8,0-3.5-0.8-4.6-2.2c-1.2-1.5-1.8-3.5-1.8-5.9
			c0-5.2,2.9-8.8,7.1-8.8c1.9,0,3.2,0.6,4.6,2.1v-4.8c0-3.1,0-3.1-2.3-3.2v-0.7l5.1-0.3c-0.1,2-0.2,3.8-0.2,6.3v12.2
			c0,3,0.1,3,0.2,3.4c0.2,0.4,0.6,0.6,1.5,0.6h0.3v0.7L340.1,213.6z M335.5,197.8c-2.8,0-4.4,2.7-4.4,7.6c0,4.9,1.4,7.5,4.1,7.5
			c3,0,4.8-2.8,4.8-7.5C339.9,200.5,338.3,197.8,335.5,197.8z"/>
		<path class="st1" d="M355,213.8c-4.5,0-7.6-3.3-7.6-8.2c0-5.1,3-8.6,7.5-8.6c2.9,0,5,1.5,6,4c0.3,0.9,0.4,1.6,0.5,3.5h-11.1
			c0,2.2,0.2,3.4,0.7,4.7c0.9,2.3,2.5,3.5,4.7,3.5c2.2,0,3.9-1.2,5.2-3.6l0.7,0.4C360.2,212.4,358.1,213.8,355,213.8z M358.1,200.1
			c-0.7-1.5-1.8-2.3-3.2-2.3c-1.5,0-2.8,0.9-3.6,2.5c-0.5,0.9-0.7,1.7-0.9,3.4h8.3C358.6,201.9,358.5,201,358.1,200.1z"/>
		<path class="st1" d="M394.2,213.3v-0.7c2.1-0.1,2.3-0.3,2.3-3.2v-6.3c0-2.1-0.1-3-0.6-3.8c-0.4-0.8-1.2-1.2-2.4-1.2
			c-1.1,0-2,0.6-2.9,1.9c-0.8,1.2-1.2,2.3-1.2,3.8v5.6c0,2.9,0.2,3.2,2.3,3.2v0.7h-7.2v-0.7c2.1-0.1,2.3-0.3,2.3-3.2v-6.7
			c0-3.1-0.9-4.6-2.8-4.6c-1.2,0-2.3,0.6-3.2,1.8c-0.8,1-1.1,2.1-1.1,3.4v6.1c0,3,0.2,3.2,2.3,3.2v0.7h-7.2v-0.7
			c2.1-0.1,2.3-0.3,2.3-3.2V201c0-2.4-0.3-2.8-2.2-2.8v-0.7l4.7-0.3v3.3c1.2-2.2,2.9-3.4,5.2-3.4c2.3,0,3.8,1.3,4.3,3.7
			c1.3-2.6,3-3.7,5.4-3.7c1.5,0,2.8,0.5,3.6,1.5c0.7,0.9,1,2,1,4.2v6.8c0,2.9,0.2,3.2,2.3,3.2v0.7H394.2z"/>
		<path class="st1" d="M411.7,213.8c-4.5,0-7.6-3.3-7.6-8.2c0-5.1,3-8.6,7.5-8.6c2.9,0,5,1.5,6,4c0.3,0.9,0.4,1.6,0.5,3.5H407
			c0,2.2,0.2,3.4,0.7,4.7c0.9,2.3,2.5,3.5,4.7,3.5c2.2,0,3.9-1.2,5.2-3.6l0.7,0.4C416.9,212.4,414.8,213.8,411.7,213.8z
			 M414.7,200.1c-0.7-1.5-1.8-2.3-3.2-2.3c-1.5,0-2.8,0.9-3.6,2.5c-0.5,0.9-0.7,1.7-0.9,3.4h8.3C415.3,201.9,415.2,201,414.7,200.1z
			 M411.6,195.5l-0.8-0.4l1.5-4.2h3.2l0.1,0.5L411.6,195.5z"/>
		<path class="st1" d="M433.4,213.6l-0.1-2.7c-1.3,2-3.1,2.9-5.4,2.9c-1.8,0-3.5-0.8-4.6-2.2c-1.2-1.5-1.8-3.5-1.8-5.9
			c0-5.2,2.9-8.8,7.1-8.8c1.9,0,3.2,0.6,4.6,2.1v-4.8c0-3.1,0-3.1-2.3-3.2v-0.7l5.1-0.3c-0.1,2-0.2,3.8-0.2,6.3v12.2
			c0,3,0.1,3,0.2,3.4c0.2,0.4,0.6,0.6,1.5,0.6h0.3v0.7L433.4,213.6z M428.8,197.8c-2.8,0-4.4,2.7-4.4,7.6c0,4.9,1.4,7.5,4.1,7.5
			c3,0,4.8-2.8,4.8-7.5C433.3,200.5,431.7,197.8,428.8,197.8z"/>
		<path class="st1" d="M448.3,213.8c-4.5,0-7.6-3.3-7.6-8.2c0-5.1,3-8.6,7.5-8.6c2.9,0,5,1.5,6,4c0.3,0.9,0.4,1.6,0.5,3.5h-11.1
			c0,2.2,0.2,3.4,0.7,4.7c0.9,2.3,2.5,3.5,4.7,3.5c2.2,0,3.9-1.2,5.2-3.6l0.7,0.4C453.6,212.4,451.4,213.8,448.3,213.8z
			 M451.4,200.1c-0.7-1.5-1.8-2.3-3.2-2.3c-1.5,0-2.8,0.9-3.6,2.5c-0.5,0.9-0.7,1.7-0.9,3.4h8.3C452,201.9,451.8,201,451.4,200.1z"
			/>
		<path class="st1" d="M465.5,213.8c-4.4,0-7.5-3.3-7.5-8.2c0-5.1,3.1-8.6,7.7-8.6c1.8,0,3.5,0.6,4.7,1.6c0.8,0.8,1.4,1.7,1.4,2.5
			c0,0.6-0.6,1-1.6,1c-0.4,0-0.8-0.1-1.1-0.3c-0.2-0.2-0.2-0.3-0.3-1.1c-0.2-1.7-1.5-2.9-3.3-2.9c-2.9,0-4.6,2.6-4.6,7.2
			c0,4.8,2,7.7,5.3,7.7c2.3,0,4-1.3,5.1-3.8l0.7,0.4C470.7,212.2,468.6,213.8,465.5,213.8z"/>
		<path class="st1" d="M474.4,213.3v-0.7c2.2-0.1,2.3-0.3,2.3-3.2V201c0-1.6-0.1-2.3-0.5-2.6c-0.3-0.2-0.8-0.3-1.9-0.3v-0.7l5.1-0.3
			c-0.1,1.8-0.2,4.6-0.2,5.9v6.4c0,2.9,0.2,3.2,2.3,3.2v0.7H474.4z M477.9,193.9c-1,0-1.8-0.8-1.8-1.8c0-1,0.8-1.8,1.8-1.8
			c1,0,1.8,0.8,1.8,1.8C479.7,193.2,478.9,193.9,477.9,193.9z"/>
		<path class="st1" d="M494.4,213.3v-0.7c1,0,1.6-0.2,1.9-0.5c0.2-0.3,0.3-0.5,0.3-1c0-0.3,0.1-1.5,0.1-1.7v-6.3
			c0-1.6-0.2-2.7-0.5-3.4c-0.5-1.1-1.5-1.7-2.8-1.7c-1.5,0-2.7,0.7-3.6,2.1c-0.7,1-1.1,2.6-1.1,3.8v5.5c0,3,0.2,3.2,2.3,3.2v0.7
			h-7.2v-0.7c2.1-0.1,2.3-0.3,2.3-3.2V201c0-2.4-0.4-2.8-2.2-2.8v-0.7l4.8-0.3v3.2c1.4-2.4,2.9-3.3,5.6-3.3c2,0,3.3,0.6,4.1,2
			c0.6,0.9,0.8,2,0.8,3.9v6.5c0,3,0.2,3.2,2.3,3.2v0.7H494.4z"/>
		<path class="st1" d="M511.8,213.8c-4.5,0-7.6-3.3-7.6-8.2c0-5.1,3-8.6,7.5-8.6c2.9,0,5,1.5,6,4c0.3,0.9,0.4,1.6,0.5,3.5h-11.1
			c0,2.2,0.2,3.4,0.7,4.7c0.9,2.3,2.5,3.5,4.7,3.5c2.2,0,3.9-1.2,5.2-3.6l0.7,0.4C517,212.4,514.9,213.8,511.8,213.8z M514.9,200.1
			c-0.7-1.5-1.8-2.3-3.3-2.3c-1.5,0-2.8,0.9-3.6,2.5c-0.5,0.9-0.7,1.7-0.9,3.4h8.3C515.4,201.9,515.3,201,514.9,200.1z"/>
	</g>
	<g>
		<path class="st1" d="M222,231.2c-0.7-3.8-1.9-4.7-6.1-4.7h-4.1v9.7h3.4c3.5,0,4.1-0.4,4.4-3.2h0.9v7.4h-0.9
			c-0.4-2.8-1-3.2-4.4-3.2h-3.4v7.3c0,2.9,0.2,3.2,2.7,3.2v0.8h-7.9v-0.8c2.2-0.1,2.4-0.3,2.4-3.2v-14.9c0-2-0.1-2-0.2-2.3
			c-0.2-0.7-0.8-0.9-2.2-0.9v-0.8h16l0.4,5.6L222,231.2z"/>
		<path class="st1" d="M237.3,248.6c-0.9,0-1.2-0.5-1.3-2.6c-0.5,0.6-0.9,0.9-1.5,1.4c-1.4,1-2.5,1.4-4.1,1.4c-1.4,0-2.4-0.3-3.2-1
			c-0.9-0.8-1.4-2-1.4-3.3c0-2.5,1.6-4.1,4.6-4.8c1.6-0.4,3.3-0.6,5.6-0.8v-2c0-1.5-0.1-2.2-0.4-2.9c-0.4-0.8-1.3-1.2-2.6-1.2
			c-2.1,0-3.2,0.9-3.3,2.9c0,0.7-0.1,0.9-0.3,1.1c-0.2,0.2-0.6,0.3-1.1,0.3c-1.1,0-1.5-0.3-1.5-0.9c0-1.1,0.8-2.3,2.1-3
			c1.2-0.7,2.7-1,4.6-1c2,0,3.5,0.5,4.2,1.4c0.6,0.8,0.9,1.8,0.9,3.6c0,0.1,0,0.1-0.1,3.2l0,3l0,1.5c0,1.3,0.2,2.5,0.3,2.7
			c0.2,0.2,0.6,0.3,1.8,0.3v0.7C239.3,248.5,238,248.6,237.3,248.6z M236,239.6c-2.8,0.3-4,0.5-5.3,1.1c-1.4,0.7-2.1,1.9-2.1,3.6
			c0,2,1.1,3.3,2.6,3.3c1.6,0,3.2-0.9,4-2.3c0.5-0.9,0.7-2.2,0.7-4.3V239.6z"/>
		<path class="st1" d="M251,248.8c-4.4,0-7.5-3.3-7.5-8.2c0-5.1,3.1-8.6,7.7-8.6c1.8,0,3.5,0.6,4.7,1.6c0.8,0.8,1.4,1.7,1.4,2.5
			c0,0.6-0.6,1-1.6,1c-0.4,0-0.9-0.1-1.1-0.3c-0.2-0.2-0.2-0.3-0.3-1.1c-0.2-1.7-1.5-2.9-3.3-2.9c-2.9,0-4.6,2.6-4.6,7.2
			c0,4.8,2,7.7,5.3,7.7c2.3,0,4-1.3,5.1-3.8l0.7,0.4C256.2,247.3,254.1,248.8,251,248.8z"/>
		<path class="st1" d="M272,248.6c-0.1-0.8-0.2-1.7-0.2-3.2c-1.2,2.1-3.3,3.4-5.6,3.4c-2,0-3.6-1-4.2-2.7c-0.3-0.9-0.4-2.1-0.4-4.9
			V236c0-1.6-0.1-2.3-0.5-2.6c-0.2-0.2-0.5-0.3-1.1-0.3c-0.4,0-0.4,0-0.6,0v-0.7l4.9-0.3c-0.2,2.9-0.2,3.7-0.2,5.9v2.7
			c0,3.2,0.1,4,0.4,5.1c0.4,1.2,1.3,1.8,2.6,1.8c1.7,0,3.3-1.1,4.1-3.1c0.5-1.1,0.6-1.8,0.6-3.7V236c0-1.7-0.1-2.3-0.5-2.6
			c-0.2-0.2-0.5-0.3-1.1-0.3h-0.6v-0.7l4.9-0.3c-0.1,2.4-0.2,4.4-0.2,5.9v6c0,3.2,0.3,3.7,1.9,3.7h0.2v0.7L272,248.6z"/>
		<path class="st1" d="M279,248.4v-0.7c2.1-0.1,2.2-0.3,2.2-3.2v-15.4c0-1.5-0.1-2.3-0.5-2.6c-0.2-0.2-0.7-0.3-1.8-0.3v-0.7l5-0.3
			c-0.1,2.1-0.2,4.6-0.2,6.3v12.9c0,2.9,0.2,3.2,2.3,3.2v0.7H279z"/>
		<path class="st1" d="M294.4,248.7c-1.5,0-2.7-0.5-3.2-1.5c-0.3-0.6-0.4-1.3-0.4-3.7v-10.2h-2v-0.7c1.9-0.2,2.8-1.4,3.3-4.4
			l1.4-0.4c-0.1,1.4-0.1,2.6-0.1,4.6h3.8v0.9h-3.8v10.6c0,1.9,0.1,2.7,0.4,3.1c0.3,0.4,0.8,0.7,1.5,0.7c0.7,0,1.3-0.2,2-0.6l0.3,0.8
			C296.5,248.5,295.5,248.7,294.4,248.7z"/>
		<path class="st1" d="M312.1,236.7l-6,15.2c-0.4,0.9-0.9,1.8-1.3,2.3c-0.5,0.7-1.5,1.1-2.4,1.1c-1.1,0-1.7-0.5-1.7-1.6
			c0-0.7,0.3-1.1,0.9-1.1c0.1,0,0.3,0,0.5,0c0.7,0.1,0.9,0.1,1.1,0.1c1.1,0,1.7-0.5,2.4-2.2l0.7-1.8l-4.8-12.4c-1-2.6-1.3-2.9-2.8-3
			v-0.7h7v0.7c-1.4,0-1.9,0.3-1.9,1.1c0,0.5,0.1,0.8,0.4,1.8l3.4,9.4l3.6-9.2c0.3-0.8,0.4-1.2,0.4-1.7c0-1-0.6-1.4-2.3-1.5v-0.7h6.1
			v0.7C313.8,233.3,313.1,234.1,312.1,236.7z"/>
		<path class="st1" d="M335.9,248.8c-4.6,0-7.6-3.2-7.6-8.1c0-2.6,0.9-5,2.3-6.5c1.3-1.4,3.3-2.1,5.5-2.1c4.6,0,7.6,3.2,7.6,8.2
			C343.7,245.5,340.7,248.8,335.9,248.8z M335.9,232.7c-3,0-4.7,2.7-4.7,7.5c0,5,1.7,7.8,4.8,7.8c3.1,0,4.8-2.7,4.8-7.5
			C340.7,235.6,339,232.7,335.9,232.7z"/>
		<path class="st1" d="M356.1,228.6c-0.5,0-0.9-0.1-1-0.3c-0.2-0.2-0.2-0.2-0.3-1c-0.2-1-0.6-1.4-1.5-1.4c-1.2,0-1.9,1-1.9,3.1
			c0,0.5,0,0.8,0,2.3c0,0.3,0,0.7,0,1.2h4.2v0.9h-4.2v11.1c0,2.9,0.2,3.2,2.5,3.2v0.7h-7.4v-0.7c2.1-0.1,2.3-0.3,2.3-3.2v-11.1h-2.4
			v-0.9h2.4c0-1.2-0.1-2.4-0.1-2.9c0-1.4,0.3-2.3,1.2-3.1c0.9-0.8,2.2-1.3,3.7-1.3c2.2,0,4,1,4,2.3
			C357.7,228.2,357.1,228.6,356.1,228.6z"/>
		<path class="st1" d="M387.4,248.4v-0.8c2.2-0.1,2.4-0.3,2.4-3.2v-17.3l-8.2,21h-1.4l-8.3-20.9v15.3c0,2.9,0.1,3.8,0.5,4.3
			c0.4,0.6,1,0.8,2.3,0.9v0.8h-6.8v-0.8c1.1,0,1.7-0.3,2.1-0.9c0.4-0.6,0.6-1.8,0.6-4.3v-12.9c0-1.6-0.1-2.3-0.5-2.7
			c-0.3-0.3-0.7-0.4-1.9-0.5v-0.8h6l7.4,18.7l7.4-18.7h5.9v0.8c-2.3,0.1-2.4,0.3-2.4,3.2v14.9c0,2.9,0.2,3.2,2.4,3.2v0.8H387.4z"/>
		<path class="st1" d="M405.7,248.8c-4.5,0-7.6-3.3-7.6-8.2c0-5.1,3-8.6,7.5-8.6c2.9,0,5,1.5,6,4c0.3,0.9,0.4,1.6,0.5,3.5H401
			c0,2.2,0.2,3.4,0.7,4.7c0.9,2.3,2.5,3.5,4.7,3.5c2.2,0,3.9-1.2,5.2-3.6l0.7,0.4C411,247.4,408.8,248.8,405.7,248.8z M408.8,235.1
			c-0.7-1.5-1.8-2.3-3.2-2.3c-1.5,0-2.8,0.9-3.6,2.5c-0.5,0.9-0.7,1.7-0.9,3.4h8.3C409.4,237,409.2,236.1,408.8,235.1z"/>
		<path class="st1" d="M427.4,248.6l-0.1-2.7c-1.3,2-3.1,2.9-5.4,2.9c-1.8,0-3.5-0.8-4.6-2.2c-1.2-1.5-1.8-3.5-1.8-5.9
			c0-5.2,2.9-8.8,7.1-8.8c1.9,0,3.2,0.6,4.6,2.1v-4.8c0-3.1,0-3.1-2.3-3.2v-0.7l5.1-0.3c-0.1,2-0.2,3.8-0.2,6.3v12.2
			c0,3,0.1,3,0.2,3.4c0.2,0.4,0.6,0.6,1.5,0.6h0.3v0.7L427.4,248.6z M422.8,232.8c-2.8,0-4.4,2.7-4.4,7.6c0,4.9,1.4,7.5,4.1,7.5
			c3,0,4.8-2.8,4.8-7.5C427.3,235.5,425.7,232.8,422.8,232.8z"/>
		<path class="st1" d="M434.3,248.4v-0.7c2.2-0.1,2.3-0.3,2.3-3.2V236c0-1.6-0.1-2.3-0.5-2.6c-0.3-0.2-0.8-0.3-1.9-0.3v-0.7l5.1-0.3
			c-0.1,1.8-0.2,4.6-0.2,5.9v6.4c0,2.9,0.2,3.2,2.3,3.2v0.7H434.3z M437.8,229c-1,0-1.8-0.8-1.8-1.8c0-1,0.8-1.8,1.8-1.8
			c1,0,1.8,0.8,1.8,1.8C439.6,228.2,438.8,229,437.8,229z"/>
		<path class="st1" d="M452,248.8c-4.4,0-7.5-3.3-7.5-8.2c0-5.1,3.1-8.6,7.7-8.6c1.8,0,3.5,0.6,4.7,1.6c0.8,0.8,1.4,1.7,1.4,2.5
			c0,0.6-0.6,1-1.6,1c-0.4,0-0.9-0.1-1.1-0.3c-0.2-0.2-0.2-0.3-0.3-1.1c-0.2-1.7-1.5-2.9-3.3-2.9c-2.9,0-4.6,2.6-4.6,7.2
			c0,4.8,2,7.7,5.3,7.7c2.3,0,4-1.3,5.1-3.8l0.7,0.4C457.2,247.3,455,248.8,452,248.8z"/>
		<path class="st1" d="M460.8,248.4v-0.7c2.2-0.1,2.3-0.3,2.3-3.2V236c0-1.6-0.1-2.3-0.5-2.6c-0.3-0.2-0.8-0.3-1.9-0.3v-0.7l5.1-0.3
			c-0.1,1.8-0.2,4.6-0.2,5.9v6.4c0,2.9,0.2,3.2,2.3,3.2v0.7H460.8z M464.4,229c-1,0-1.8-0.8-1.8-1.8c0-1,0.8-1.8,1.8-1.8
			c1,0,1.8,0.8,1.8,1.8C466.1,228.2,465.3,229,464.4,229z"/>
		<path class="st1" d="M480.9,248.4v-0.7c1,0,1.6-0.2,1.9-0.5c0.2-0.3,0.3-0.5,0.3-1c0-0.3,0.1-1.5,0.1-1.7v-6.3
			c0-1.6-0.2-2.7-0.5-3.4c-0.5-1.1-1.5-1.7-2.8-1.7c-1.5,0-2.7,0.7-3.6,2.1c-0.7,1-1.1,2.6-1.1,3.8v5.5c0,3,0.2,3.2,2.3,3.2v0.7
			h-7.2v-0.7c2.1-0.1,2.3-0.3,2.3-3.2V236c0-2.4-0.4-2.8-2.2-2.8v-0.7l4.8-0.3v3.2c1.4-2.4,2.9-3.3,5.6-3.3c2,0,3.3,0.6,4.1,2
			c0.6,0.9,0.8,2,0.8,3.9v6.5c0,3,0.2,3.2,2.3,3.2v0.7H480.9z"/>
		<path class="st1" d="M498.3,248.8c-4.5,0-7.6-3.3-7.6-8.2c0-5.1,3-8.6,7.5-8.6c2.9,0,5,1.5,6,4c0.3,0.9,0.4,1.6,0.5,3.5h-11.1
			c0,2.2,0.2,3.4,0.7,4.7c0.9,2.3,2.5,3.5,4.7,3.5c2.2,0,3.9-1.2,5.2-3.6l0.7,0.4C503.5,247.4,501.4,248.8,498.3,248.8z
			 M501.3,235.1c-0.7-1.5-1.8-2.3-3.2-2.3c-1.5,0-2.8,0.9-3.6,2.5c-0.5,0.9-0.7,1.7-0.9,3.4h8.3C501.9,237,501.7,236.1,501.3,235.1z
			"/>
	</g>
</g>
</svg>
