<?xml version="1.0" encoding="utf-8"?>
<!-- Generator: Adobe Illustrator 19.1.0, SVG Export Plug-In . SVG Version: 6.00 Build 0)  -->
<svg version="1.1" id="Layer_1" xmlns="http://www.w3.org/2000/svg" xmlns:xlink="http://www.w3.org/1999/xlink" x="0px" y="0px"
	 viewBox="0 0 308.9 371.3" style="enable-background:new 0 0 308.9 371.3;" xml:space="preserve">
<style type="text/css">
	.st0{fill:#98002E;}
	.st1{fill:#8A7967;}
</style>
<g>
	<g>
		<g>
			<g>
				<path class="st0" d="M35,312c-0.6-3.3-1.6-4-5.1-4h-3.5v8.2h2.9c2.9,0,3.4-0.4,3.7-2.7h0.7v6.2h-0.7c-0.4-2.4-0.8-2.7-3.7-2.7
					h-2.9v6.1c0,2.5,0.2,2.7,2.3,2.7v0.7H22v-0.7c1.9-0.1,2-0.3,2-2.7v-12.5c0-1.7-0.1-1.7-0.1-2c-0.2-0.6-0.7-0.8-1.9-0.8v-0.6
					h13.5l0.3,4.7L35,312z"/>
				<path class="st0" d="M47.9,326.7c-0.8,0-1-0.4-1.1-2.2c-0.4,0.5-0.8,0.8-1.3,1.1c-1.2,0.9-2.1,1.1-3.5,1.1
					c-1.2,0-2.1-0.3-2.7-0.8c-0.7-0.6-1.2-1.7-1.2-2.8c0-2.1,1.3-3.5,3.9-4.1c1.4-0.3,2.8-0.5,4.7-0.6v-1.7c0-1.2-0.1-1.9-0.4-2.4
					c-0.3-0.7-1.1-1-2.2-1c-1.8,0-2.7,0.8-2.8,2.5c0,0.6-0.1,0.7-0.3,0.9c-0.2,0.1-0.5,0.2-0.9,0.2c-0.9,0-1.3-0.2-1.3-0.8
					c0-1,0.7-1.9,1.8-2.6c1-0.6,2.3-0.9,3.9-0.9c1.7,0,2.9,0.4,3.6,1.2c0.5,0.7,0.8,1.5,0.8,3c0,0.1,0,0.1-0.1,2.7l0,2.5l0,1.2
					c0,1.1,0.1,2.1,0.3,2.3c0.2,0.2,0.5,0.3,1.5,0.3v0.6C49.6,326.6,48.4,326.7,47.9,326.7z M46.8,319.1c-2.4,0.2-3.4,0.4-4.5,1
					c-1.2,0.6-1.8,1.6-1.8,3c0,1.7,0.9,2.8,2.2,2.8c1.4,0,2.7-0.8,3.4-1.9c0.4-0.7,0.6-1.9,0.6-3.6V319.1z"/>
				<path class="st0" d="M59.5,326.9c-3.8,0-6.4-2.8-6.4-6.9c0-4.3,2.6-7.3,6.5-7.3c1.5,0,3,0.5,3.9,1.4c0.7,0.6,1.1,1.4,1.1,2.1
					c0,0.5-0.5,0.8-1.3,0.8c-0.4,0-0.7-0.1-0.9-0.3c-0.2-0.2-0.1-0.2-0.2-0.9c-0.1-1.5-1.3-2.5-2.8-2.5c-2.4,0-3.9,2.2-3.9,6.1
					c0,4,1.7,6.5,4.5,6.5c1.9,0,3.4-1.1,4.3-3.2l0.6,0.4C63.9,325.6,62,326.9,59.5,326.9z"/>
				<path class="st0" d="M77.2,326.7c-0.1-0.6-0.1-1.4-0.1-2.7c-1,1.8-2.8,2.9-4.7,2.9c-1.7,0-3-0.8-3.5-2.2
					c-0.3-0.7-0.4-1.8-0.4-4.1v-4.4c0-1.4-0.1-1.9-0.4-2.2c-0.2-0.2-0.4-0.2-0.9-0.2c-0.3,0-0.3,0-0.5,0v-0.6l4.1-0.3
					c-0.1,2.5-0.2,3.1-0.2,5v2.3c0,2.7,0.1,3.4,0.4,4.3c0.3,1,1.1,1.5,2.2,1.5c1.5,0,2.8-1,3.5-2.6c0.4-0.9,0.5-1.5,0.5-3.1v-4.1
					c0-1.4-0.1-1.9-0.4-2.2c-0.2-0.2-0.4-0.3-0.9-0.3h-0.5v-0.6l4.1-0.3c-0.1,2-0.1,3.8-0.1,5v5c0,2.7,0.2,3.1,1.6,3.1h0.2v0.6
					L77.2,326.7z"/>
				<path class="st0" d="M83.1,326.5v-0.6c1.8-0.1,1.9-0.3,1.9-2.7v-13c0-1.3-0.1-1.9-0.4-2.2c-0.2-0.2-0.6-0.2-1.5-0.2v-0.6
					l4.3-0.2c-0.1,1.8-0.2,3.9-0.2,5.3v10.9c0,2.5,0.1,2.7,1.9,2.7v0.6H83.1z"/>
				<path class="st0" d="M96.1,326.8c-1.3,0-2.3-0.5-2.7-1.3c-0.3-0.5-0.4-1.1-0.4-3.1v-8.6h-1.7v-0.6c1.6-0.1,2.4-1.2,2.8-3.7
					l1.2-0.3c-0.1,1.1-0.1,2.2-0.1,3.9h3.2v0.7h-3.2v9c0,1.6,0.1,2.3,0.3,2.6c0.3,0.4,0.7,0.6,1.3,0.6c0.6,0,1.1-0.1,1.7-0.5
					l0.2,0.7C97.9,326.6,97,326.8,96.1,326.8z"/>
				<path class="st0" d="M107.2,326.9c-3.8,0-6.4-2.8-6.4-6.9c0-4.3,2.6-7.3,6.3-7.3c2.4,0,4.3,1.2,5.1,3.4c0.3,0.7,0.4,1.4,0.4,2.9
					h-9.4c0,1.8,0.2,2.9,0.6,4c0.8,2,2.1,2.9,4,2.9c1.9,0,3.3-1,4.4-3l0.6,0.3C111.6,325.7,109.8,326.9,107.2,326.9z M109.8,315.3
					c-0.6-1.3-1.5-2-2.7-2c-1.3,0-2.3,0.7-3.1,2.1c-0.4,0.8-0.6,1.5-0.7,2.9h7C110.3,316.9,110.1,316.1,109.8,315.3z M107.1,311.4
					l-0.7-0.4l1.3-3.5h2.7l0.1,0.4L107.1,311.4z"/>
				<path class="st0" d="M134.7,326.7l-0.1-2.3c-1.1,1.7-2.6,2.5-4.5,2.5c-1.5,0-3-0.7-3.9-1.8c-1-1.2-1.5-2.9-1.5-5
					c0-4.4,2.5-7.4,6-7.4c1.6,0,2.7,0.5,3.9,1.8v-4c0-2.6,0-2.6-2-2.7v-0.6l4.3-0.2c-0.1,1.7-0.2,3.2-0.2,5.3v10.3
					c0,2.5,0.1,2.5,0.2,2.9c0.2,0.3,0.5,0.5,1.3,0.5h0.3v0.6L134.7,326.7z M130.8,313.3c-2.4,0-3.7,2.3-3.7,6.4
					c0,4.1,1.2,6.3,3.5,6.3c2.5,0,4-2.3,4-6.3C134.6,315.6,133.2,313.3,130.8,313.3z"/>
				<path class="st0" d="M147.3,326.9c-3.8,0-6.4-2.8-6.4-6.9c0-4.3,2.6-7.3,6.3-7.3c2.4,0,4.3,1.2,5.1,3.4c0.3,0.7,0.4,1.4,0.4,2.9
					h-9.4c0,1.8,0.2,2.9,0.6,4c0.8,2,2.1,2.9,4,2.9c1.9,0,3.3-1,4.4-3l0.6,0.3C151.7,325.7,149.9,326.9,147.3,326.9z M149.9,315.3
					c-0.6-1.3-1.5-2-2.7-2c-1.3,0-2.3,0.7-3.1,2.1c-0.4,0.8-0.6,1.5-0.7,2.9h7C150.4,316.9,150.2,316.1,149.9,315.3z"/>
				<path class="st0" d="M180.4,326.5v-0.6c1.8-0.1,1.9-0.3,1.9-2.7v-5.3c0-1.8-0.1-2.5-0.5-3.2c-0.4-0.7-1-1-2-1
					c-0.9,0-1.7,0.5-2.5,1.6c-0.7,1-1,1.9-1,3.2v4.7c0,2.5,0.1,2.7,1.9,2.7v0.6h-6v-0.6c1.8-0.1,1.9-0.3,1.9-2.7v-5.6
					c0-2.6-0.8-3.9-2.4-3.9c-1,0-1.9,0.5-2.7,1.5c-0.7,0.9-0.9,1.7-0.9,2.9v5.1c0,2.5,0.1,2.7,1.9,2.7v0.6h-6v-0.6
					c1.8-0.1,1.9-0.2,1.9-2.7V316c0-2-0.3-2.4-1.8-2.4v-0.6l4-0.3v2.8c1-1.9,2.5-2.9,4.4-2.9c2,0,3.2,1.1,3.6,3.1
					c1.1-2.2,2.5-3.1,4.6-3.1c1.3,0,2.3,0.4,3,1.2c0.6,0.7,0.8,1.7,0.8,3.5v5.8c0,2.5,0.1,2.7,1.9,2.7v0.6H180.4z"/>
				<path class="st0" d="M195.2,326.9c-3.8,0-6.4-2.8-6.4-6.9c0-4.3,2.6-7.3,6.3-7.3c2.4,0,4.3,1.2,5.1,3.4c0.3,0.7,0.4,1.4,0.4,2.9
					h-9.4c0,1.8,0.2,2.9,0.6,4c0.8,2,2.1,2.9,4,2.9c1.9,0,3.3-1,4.4-3l0.6,0.3C199.6,325.7,197.8,326.9,195.2,326.9z M197.8,315.3
					c-0.6-1.3-1.5-2-2.7-2c-1.3,0-2.3,0.7-3.1,2.1c-0.4,0.8-0.6,1.5-0.7,2.9h7C198.2,316.9,198.1,316.1,197.8,315.3z M195.1,311.4
					l-0.7-0.4l1.3-3.5h2.7l0.1,0.4L195.1,311.4z"/>
				<path class="st0" d="M213.5,326.7l-0.1-2.3c-1.1,1.7-2.6,2.5-4.5,2.5c-1.5,0-3-0.7-3.9-1.8c-1-1.2-1.5-2.9-1.5-5
					c0-4.4,2.5-7.4,6-7.4c1.6,0,2.7,0.5,3.9,1.8v-4c0-2.6,0-2.6-2-2.7v-0.6l4.3-0.2c-0.1,1.7-0.2,3.2-0.2,5.3v10.3
					c0,2.5,0.1,2.5,0.2,2.9c0.2,0.3,0.5,0.5,1.3,0.5h0.3v0.6L213.5,326.7z M209.6,313.3c-2.4,0-3.7,2.3-3.7,6.4
					c0,4.1,1.2,6.3,3.5,6.3c2.5,0,4-2.3,4-6.3C213.4,315.6,212,313.3,209.6,313.3z"/>
				<path class="st0" d="M226.1,326.9c-3.8,0-6.4-2.8-6.4-6.9c0-4.3,2.6-7.3,6.3-7.3c2.4,0,4.3,1.2,5.1,3.4c0.3,0.7,0.4,1.4,0.4,2.9
					h-9.4c0,1.8,0.2,2.9,0.6,4c0.8,2,2.1,2.9,4,2.9c1.9,0,3.3-1,4.4-3l0.6,0.3C230.5,325.7,228.7,326.9,226.1,326.9z M228.7,315.3
					c-0.6-1.3-1.5-2-2.7-2c-1.3,0-2.3,0.7-3.1,2.1c-0.4,0.8-0.6,1.5-0.7,2.9h7C229.2,316.9,229.1,316.1,228.7,315.3z"/>
				<path class="st0" d="M240.6,326.9c-3.8,0-6.4-2.8-6.4-6.9c0-4.3,2.6-7.3,6.5-7.3c1.5,0,3,0.5,3.9,1.4c0.7,0.6,1.1,1.4,1.1,2.1
					c0,0.5-0.5,0.8-1.3,0.8c-0.4,0-0.7-0.1-0.9-0.3c-0.2-0.2-0.1-0.2-0.2-0.9c-0.1-1.5-1.3-2.5-2.8-2.5c-2.4,0-3.9,2.2-3.9,6.1
					c0,4,1.7,6.5,4.4,6.5c1.9,0,3.4-1.1,4.3-3.2l0.6,0.4C245,325.6,243.2,326.9,240.6,326.9z"/>
				<path class="st0" d="M248.1,326.5v-0.6c1.8-0.1,2-0.3,2-2.7v-7.1c0-1.3-0.1-1.9-0.4-2.2c-0.2-0.2-0.6-0.2-1.6-0.2v-0.6l4.3-0.3
					c-0.1,1.5-0.2,3.9-0.2,5v5.4c0,2.5,0.1,2.7,1.9,2.7v0.6H248.1z M251.1,310.1c-0.9,0-1.5-0.7-1.5-1.5c0-0.8,0.7-1.5,1.5-1.5
					c0.8,0,1.5,0.7,1.5,1.5C252.6,309.5,251.9,310.1,251.1,310.1z"/>
				<path class="st0" d="M265,326.5v-0.6c0.9,0,1.4-0.1,1.6-0.4c0.2-0.2,0.2-0.4,0.3-0.9c0-0.3,0.1-1.3,0.1-1.5v-5.4
					c0-1.3-0.1-2.3-0.4-2.9c-0.4-0.9-1.2-1.4-2.3-1.4c-1.3,0-2.3,0.6-3,1.8c-0.6,0.9-0.9,2.2-0.9,3.2v4.6c0,2.5,0.1,2.7,1.9,2.7v0.6
					h-6.1v-0.6c1.8-0.1,1.9-0.3,1.9-2.7V316c0-2-0.3-2.4-1.8-2.4v-0.6l4-0.3v2.7c1.2-2.1,2.5-2.8,4.7-2.8c1.7,0,2.8,0.5,3.5,1.7
					c0.5,0.8,0.7,1.7,0.7,3.3v5.5c0,2.5,0.1,2.7,1.9,2.7v0.6H265z"/>
				<path class="st0" d="M279.7,326.9c-3.8,0-6.4-2.8-6.4-6.9c0-4.3,2.6-7.3,6.3-7.3c2.4,0,4.3,1.2,5.1,3.4c0.3,0.7,0.4,1.4,0.4,2.9
					h-9.4c0,1.8,0.2,2.9,0.6,4c0.8,2,2.1,2.9,4,2.9c1.9,0,3.3-1,4.4-3l0.6,0.3C284.2,325.7,282.3,326.9,279.7,326.9z M282.3,315.3
					c-0.6-1.3-1.5-2-2.7-2c-1.3,0-2.3,0.7-3.1,2.1c-0.4,0.8-0.6,1.5-0.7,2.9h7C282.8,316.9,282.7,316.1,282.3,315.3z"/>
				<path class="st0" d="M40.7,345.6c-0.6-3.3-1.6-4-5.1-4h-3.5v8.2h2.9c2.9,0,3.4-0.4,3.7-2.7h0.7v6.2h-0.7
					c-0.4-2.4-0.8-2.7-3.7-2.7h-2.9v6.1c0,2.5,0.2,2.7,2.3,2.7v0.7h-6.7v-0.7c1.9-0.1,2-0.3,2-2.7v-12.5c0-1.7-0.1-1.7-0.1-2
					c-0.2-0.6-0.7-0.8-1.9-0.8v-0.6h13.5l0.3,4.7L40.7,345.6z"/>
				<path class="st0" d="M53.6,360.3c-0.8,0-1-0.4-1.1-2.2c-0.4,0.5-0.8,0.8-1.3,1.1c-1.2,0.9-2.1,1.1-3.5,1.1
					c-1.2,0-2.1-0.3-2.7-0.8c-0.7-0.6-1.2-1.7-1.2-2.8c0-2.1,1.3-3.5,3.9-4c1.4-0.3,2.8-0.5,4.7-0.6v-1.7c0-1.2-0.1-1.9-0.4-2.4
					c-0.3-0.7-1.1-1-2.2-1c-1.8,0-2.7,0.8-2.8,2.5c0,0.6-0.1,0.7-0.3,0.9c-0.2,0.1-0.5,0.2-0.9,0.2c-0.9,0-1.3-0.2-1.3-0.8
					c0-1,0.7-1.9,1.8-2.6c1-0.6,2.3-0.9,3.9-0.9c1.7,0,2.9,0.4,3.6,1.2c0.5,0.7,0.8,1.5,0.8,3c0,0.1,0,0.1-0.1,2.7l0,2.5l0,1.2
					c0,1.1,0.1,2.1,0.3,2.3c0.2,0.2,0.5,0.3,1.5,0.3v0.6C55.3,360.2,54.1,360.3,53.6,360.3z M52.5,352.7c-2.4,0.2-3.4,0.4-4.5,1
					c-1.2,0.6-1.8,1.6-1.8,3c0,1.7,0.9,2.8,2.2,2.8c1.4,0,2.7-0.8,3.4-1.9c0.4-0.7,0.6-1.9,0.6-3.6V352.7z"/>
				<path class="st0" d="M65.2,360.5c-3.8,0-6.4-2.8-6.4-6.9c0-4.3,2.6-7.3,6.5-7.3c1.5,0,3,0.5,3.9,1.4c0.7,0.6,1.1,1.4,1.1,2.1
					c0,0.5-0.5,0.8-1.3,0.8c-0.4,0-0.7-0.1-0.9-0.3c-0.2-0.2-0.1-0.2-0.2-0.9c-0.1-1.5-1.3-2.5-2.8-2.5c-2.4,0-3.9,2.2-3.9,6.1
					c0,4,1.7,6.5,4.5,6.5c1.9,0,3.4-1.1,4.3-3.2l0.6,0.4C69.6,359.2,67.7,360.5,65.2,360.5z"/>
				<path class="st0" d="M82.9,360.3c-0.1-0.6-0.1-1.4-0.1-2.7c-1,1.8-2.8,2.9-4.7,2.9c-1.7,0-3-0.8-3.5-2.2
					c-0.3-0.7-0.4-1.8-0.4-4.1v-4.4c0-1.4-0.1-1.9-0.4-2.2c-0.2-0.2-0.4-0.2-0.9-0.2c-0.3,0-0.3,0-0.5,0v-0.6l4.1-0.3
					c-0.1,2.5-0.2,3.1-0.2,5v2.3c0,2.7,0.1,3.4,0.4,4.3c0.3,1,1.1,1.5,2.2,1.5c1.5,0,2.8-1,3.5-2.6c0.4-0.9,0.5-1.5,0.5-3.1v-4.1
					c0-1.4-0.1-1.9-0.4-2.2c-0.2-0.2-0.4-0.3-0.9-0.3H81v-0.6l4.1-0.3c-0.1,2-0.1,3.8-0.1,5v5c0,2.7,0.2,3.1,1.6,3.1h0.2v0.6
					L82.9,360.3z"/>
				<path class="st0" d="M88.8,360.1v-0.6c1.8-0.1,1.9-0.3,1.9-2.7v-13c0-1.3-0.1-1.9-0.4-2.2c-0.2-0.2-0.6-0.2-1.5-0.2v-0.6
					l4.3-0.2c-0.1,1.8-0.2,3.9-0.2,5.3v10.9c0,2.5,0.1,2.7,1.9,2.7v0.6H88.8z"/>
				<path class="st0" d="M101.8,360.4c-1.3,0-2.3-0.5-2.7-1.3c-0.3-0.5-0.4-1.1-0.4-3.1v-8.6H97v-0.6c1.6-0.1,2.4-1.2,2.8-3.7
					l1.2-0.3c-0.1,1.1-0.1,2.2-0.1,3.9h3.2v0.7h-3.2v9c0,1.6,0.1,2.3,0.3,2.6c0.3,0.4,0.7,0.6,1.3,0.6c0.6,0,1.1-0.1,1.7-0.5
					l0.2,0.7C103.6,360.2,102.8,360.4,101.8,360.4z"/>
				<path class="st0" d="M116.7,350.2l-5.1,12.8c-0.3,0.8-0.7,1.5-1.1,1.9c-0.5,0.6-1.3,0.9-2,0.9c-1,0-1.4-0.4-1.4-1.4
					c0-0.6,0.2-0.9,0.7-0.9c0.1,0,0.2,0,0.4,0c0.6,0.1,0.8,0.1,1,0.1c1,0,1.4-0.4,2-1.9l0.6-1.5l-4-10.5c-0.8-2.2-1.1-2.5-2.4-2.6
					v-0.6h5.9v0.6c-1.2,0-1.6,0.3-1.6,1c0,0.4,0.1,0.7,0.4,1.5l2.9,7.9l3-7.8c0.3-0.7,0.3-1,0.3-1.4c0-0.9-0.5-1.2-1.9-1.2v-0.6h5.1
					v0.6C118.2,347.4,117.6,348,116.7,350.2z"/>
				<path class="st0" d="M136.8,360.5c-3.9,0-6.4-2.7-6.4-6.9c0-2.2,0.7-4.3,1.9-5.5c1.1-1.1,2.8-1.8,4.6-1.8c3.9,0,6.4,2.7,6.4,6.9
					C143.4,357.7,140.9,360.5,136.8,360.5z M136.9,346.9c-2.6,0-4,2.3-4,6.3c0,4.2,1.5,6.6,4,6.6c2.6,0,4.1-2.3,4.1-6.4
					C141,349.3,139.5,346.9,136.9,346.9z"/>
				<path class="st0" d="M153.9,343.4c-0.4,0-0.7-0.1-0.9-0.2c-0.2-0.2-0.2-0.2-0.3-0.9c-0.1-0.8-0.5-1.1-1.3-1.1
					c-1,0-1.6,0.9-1.6,2.6c0,0.4,0,0.7,0,1.9c0,0.3,0,0.6,0,1h3.5v0.7H150v9.4c0,2.5,0.2,2.7,2.1,2.7v0.6h-6.2v-0.6
					c1.8-0.1,1.9-0.3,1.9-2.7v-9.4h-2.1v-0.7h2.1c0-1-0.1-2-0.1-2.5c0-1.2,0.3-1.9,1-2.6c0.7-0.7,1.9-1.1,3.1-1.1
					c1.9,0,3.4,0.9,3.4,2C155.2,343,154.7,343.4,153.9,343.4z"/>
				<path class="st0" d="M180.3,360.1v-0.7c1.9-0.1,2.1-0.3,2.1-2.7v-14.6l-6.9,17.7h-1.1l-7-17.7v12.9c0,2.5,0.1,3.2,0.4,3.6
					c0.3,0.5,0.9,0.7,1.9,0.7v0.7h-5.8v-0.7c0.9,0,1.5-0.3,1.8-0.7c0.4-0.5,0.5-1.5,0.5-3.6v-10.9c0-1.4-0.1-2-0.4-2.3
					c-0.3-0.3-0.6-0.4-1.6-0.4v-0.6h5.1l6.3,15.8l6.2-15.8h5v0.6c-1.9,0.1-2.1,0.3-2.1,2.7v12.5c0,2.5,0.2,2.7,2.1,2.7v0.7H180.3z"
					/>
				<path class="st0" d="M195.8,360.5c-3.8,0-6.4-2.8-6.4-6.9c0-4.3,2.6-7.3,6.3-7.3c2.4,0,4.3,1.2,5.1,3.4c0.3,0.7,0.4,1.4,0.4,2.9
					h-9.4c0,1.8,0.2,2.9,0.6,4c0.8,2,2.1,2.9,4,2.9c1.9,0,3.3-1,4.4-3l0.6,0.3C200.3,359.3,198.5,360.5,195.8,360.5z M198.4,348.9
					c-0.6-1.3-1.5-2-2.7-2c-1.3,0-2.3,0.7-3.1,2.1c-0.4,0.8-0.6,1.5-0.7,2.9h7C198.9,350.5,198.8,349.7,198.4,348.9z"/>
				<path class="st0" d="M214.2,360.3l-0.1-2.3c-1.1,1.7-2.6,2.5-4.5,2.5c-1.5,0-3-0.7-3.9-1.8c-1-1.2-1.5-2.9-1.5-5
					c0-4.4,2.5-7.4,6-7.4c1.6,0,2.7,0.5,3.9,1.8v-4c0-2.6,0-2.6-2-2.7v-0.6l4.3-0.2c-0.1,1.7-0.2,3.2-0.2,5.3v10.3
					c0,2.5,0.1,2.5,0.2,2.9c0.2,0.3,0.5,0.5,1.3,0.5h0.3v0.6L214.2,360.3z M210.3,347c-2.4,0-3.7,2.3-3.7,6.4c0,4.1,1.2,6.3,3.5,6.3
					c2.5,0,4-2.3,4-6.3C214.1,349.3,212.7,347,210.3,347z"/>
				<path class="st0" d="M220,360.1v-0.6c1.8-0.1,2-0.3,2-2.7v-7.1c0-1.3-0.1-1.9-0.4-2.2c-0.2-0.2-0.6-0.2-1.6-0.2v-0.6l4.3-0.3
					c-0.1,1.5-0.2,3.9-0.2,5v5.4c0,2.5,0.1,2.7,1.9,2.7v0.6H220z M223,343.7c-0.9,0-1.5-0.7-1.5-1.5c0-0.8,0.7-1.5,1.5-1.5
					c0.8,0,1.5,0.7,1.5,1.5C224.5,343.1,223.8,343.7,223,343.7z"/>
				<path class="st0" d="M234.9,360.5c-3.8,0-6.4-2.8-6.4-6.9c0-4.3,2.6-7.3,6.5-7.3c1.5,0,3,0.5,3.9,1.4c0.7,0.6,1.1,1.4,1.1,2.1
					c0,0.5-0.5,0.8-1.3,0.8c-0.4,0-0.7-0.1-0.9-0.3c-0.2-0.2-0.1-0.2-0.2-0.9c-0.1-1.5-1.3-2.5-2.8-2.5c-2.4,0-3.9,2.2-3.9,6.1
					c0,4,1.7,6.5,4.4,6.5c1.9,0,3.4-1.1,4.3-3.2l0.6,0.4C239.3,359.2,237.5,360.5,234.9,360.5z"/>
				<path class="st0" d="M242.4,360.1v-0.6c1.8-0.1,2-0.3,2-2.7v-7.1c0-1.3-0.1-1.9-0.4-2.2c-0.2-0.2-0.6-0.2-1.6-0.2v-0.6l4.3-0.3
					c-0.1,1.5-0.2,3.9-0.2,5v5.4c0,2.5,0.1,2.7,1.9,2.7v0.6H242.4z M245.4,343.7c-0.9,0-1.5-0.7-1.5-1.5c0-0.8,0.7-1.5,1.5-1.5
					c0.8,0,1.5,0.7,1.5,1.5C246.9,343.1,246.2,343.7,245.4,343.7z"/>
				<path class="st0" d="M259.3,360.1v-0.6c0.9,0,1.4-0.1,1.6-0.4c0.2-0.2,0.2-0.4,0.3-0.9c0-0.3,0.1-1.3,0.1-1.5v-5.4
					c0-1.3-0.1-2.3-0.4-2.9c-0.4-0.9-1.2-1.4-2.3-1.4c-1.3,0-2.3,0.6-3,1.8c-0.6,0.9-0.9,2.2-0.9,3.3v4.6c0,2.5,0.1,2.7,1.9,2.7v0.6
					h-6.1v-0.6c1.8-0.1,1.9-0.3,1.9-2.7v-7.1c0-2-0.3-2.4-1.8-2.4v-0.6l4-0.3v2.7c1.2-2.1,2.5-2.8,4.7-2.8c1.7,0,2.8,0.5,3.5,1.7
					c0.5,0.8,0.7,1.7,0.7,3.3v5.5c0,2.5,0.1,2.7,1.9,2.7v0.6H259.3z"/>
				<path class="st0" d="M274,360.5c-3.8,0-6.4-2.8-6.4-6.9c0-4.3,2.6-7.3,6.3-7.3c2.4,0,4.3,1.2,5.1,3.4c0.3,0.7,0.4,1.4,0.4,2.9
					H270c0,1.8,0.2,2.9,0.6,4c0.8,2,2.1,2.9,4,2.9c1.9,0,3.3-1,4.4-3l0.6,0.3C278.4,359.3,276.6,360.5,274,360.5z M276.6,348.9
					c-0.6-1.3-1.5-2-2.7-2c-1.3,0-2.3,0.7-3.1,2.1c-0.4,0.8-0.6,1.5-0.7,2.9h7C277.1,350.5,276.9,349.7,276.6,348.9z"/>
			</g>
		</g>
	</g>
	<g>
		<g>
			<path class="st1" d="M40.5,260.8c-0.2-1.8-0.4-4-0.4-7.6c-2.9,5-7.7,8-13.1,8c-4.7,0-8.3-2.3-9.8-6.2c-0.7-2-1-5-1-11.4v-12.2
				c0-3.8-0.3-5.4-1.1-6c-0.4-0.4-1.1-0.6-2.5-0.7c-1,0-1,0-1.3,0V223l11.4-0.7c-0.4,6.9-0.4,8.6-0.4,13.7v6.4c0,7.4,0.1,9.4,1,12
				c0.9,2.7,2.9,4.1,6,4.1c4.1,0,7.7-2.7,9.6-7.1c1.1-2.5,1.3-4.1,1.3-8.7v-11.4c0-3.9-0.2-5.3-1.1-6c-0.4-0.4-1.2-0.7-2.5-0.7h-1.3
				V223l11.4-0.7c-0.2,5.5-0.4,10.4-0.4,13.7V250c0,7.4,0.7,8.7,4.5,8.7h0.5v1.6L40.5,260.8z"/>
			<path class="st1" d="M69.9,214.2c4.4-5.5,10.8-8.4,18.8-8.4c8,0,14.3,2.8,18.8,8.4c4.1,5.2,6.1,11.6,6.1,19.3
				c0,7.7-2.1,14.2-6.1,19.2c-4.6,5.7-10.8,8.5-18.8,8.5c-8,0-14.4-3-18.8-8.5c-4.1-5.2-6.1-11.6-6.1-19.2
				C63.8,225.8,65.8,219.4,69.9,214.2z M75.2,251.2c2.9,5.2,7.6,8,13.5,8c5.9,0,10.5-2.8,13.5-8c2.7-4.8,4-10.5,4-17.7
				c0-7.1-1.3-12.9-4-17.7c-2.9-5.3-7.6-8-13.5-8c-5.9,0-10.5,2.8-13.5,8c-2.7,4.9-4,10.7-4,17.7S72.5,246.3,75.2,251.2z"/>
			<path class="st1" d="M130.3,249.8c0,4.4,0.2,6.3,1,7.3c0.7,1,1.9,1.5,3.6,1.5c1.6,0,3-0.4,4.6-1.3l0.7,1.9
				c-2.4,1.3-4.8,1.8-7.4,1.8c-3.6,0-6.3-1.2-7.6-3.6c-0.8-1.5-1-3.1-1-8.5V225h-4.6v-1.7c4.3-0.4,6.6-3.2,7.7-10.2l3.4-1
				c-0.1,3.2-0.2,6-0.2,10.8h8.8v2h-8.8V249.8z"/>
			<path class="st1" d="M154.6,249.8c0,4.4,0.2,6.3,1,7.3c0.7,1,1.9,1.5,3.6,1.5c1.6,0,3-0.4,4.6-1.3l0.7,1.9
				c-2.4,1.3-4.8,1.8-7.4,1.8c-3.6,0-6.3-1.2-7.6-3.6c-0.8-1.5-1-3.1-1-8.5V225h-4.6v-1.7c4.3-0.4,6.6-3.2,7.7-10.2l3.4-1
				c-0.1,3.2-0.2,6-0.2,10.8h8.8v2h-8.8V249.8z"/>
			<path class="st1" d="M203.9,260.1c-2.9,0.4-6.1,0.7-7.6,0.7c-2.2,0-2.8-1.2-3.1-6.1c-1.2,1.3-2.1,2.1-3.6,3.2
				c-3.2,2.4-5.8,3.2-9.6,3.2c-3.2,0-5.7-0.7-7.5-2.3c-2-1.8-3.2-4.7-3.2-7.8c0-5.8,3.7-9.6,10.8-11.2c3.8-0.9,7.7-1.4,13.1-1.8
				v-4.6c0-3.4-0.3-5.2-1-6.7c-1-1.9-3-2.9-6-2.9c-4.9,0-7.4,2.2-7.7,6.8c-0.1,1.5-0.2,2.1-0.8,2.5c-0.5,0.4-1.5,0.6-2.6,0.6
				c-2.5,0-3.6-0.7-3.6-2.2c0-2.7,1.9-5.3,5-7.1c2.8-1.5,6.4-2.4,10.8-2.4c4.7,0,8.1,1.1,9.9,3.2c1.5,1.8,2.1,4.3,2.1,8.3
				c0,0.2,0,0.2-0.1,7.4l-0.1,7l-0.1,3.4c0,3.1,0.4,5.7,0.8,6.3c0.4,0.6,1.3,0.8,4.1,0.8V260.1z M193.2,239.7
				c-6.6,0.6-9.4,1.2-12.4,2.7c-3.2,1.6-4.9,4.5-4.9,8.4c0,4.6,2.5,7.8,6.2,7.8c3.8,0,7.6-2.2,9.4-5.4c1.2-2.1,1.7-5.2,1.7-10V239.7
				z"/>
			<path class="st1" d="M222.3,260.6h-3.8l-9.1-30.6c-1.3-4.2-2.1-5.1-5.7-5.3V223h16.4v1.6c-3.5,0.1-4.9,0.9-4.9,2.7
				c0,0.6,0.2,1.7,0.7,3.2l6.6,23.1L232,224h3l9.4,29.8l6.4-21.7c0.6-1.8,0.9-3.2,0.9-4.3c0-1.3-0.7-2.2-2.1-2.7
				c-0.9-0.3-1.4-0.4-3.3-0.5V223h14.4v1.6c-4.1,0.2-5.5,1.6-7.2,7.3l-8.9,28.6h-3.8l-9.2-28.3L222.3,260.6z"/>
			<path class="st1" d="M295.9,260.1c-2.9,0.4-6.1,0.7-7.6,0.7c-2.2,0-2.8-1.2-3.1-6.1c-1.2,1.3-2.1,2.1-3.6,3.2
				c-3.2,2.4-5.8,3.2-9.6,3.2c-3.2,0-5.7-0.7-7.5-2.3c-2-1.8-3.2-4.7-3.2-7.8c0-5.8,3.7-9.6,10.8-11.2c3.8-0.9,7.7-1.4,13.1-1.8
				v-4.6c0-3.4-0.3-5.2-1-6.7c-1-1.9-3-2.9-6-2.9c-4.9,0-7.4,2.2-7.7,6.8c-0.1,1.5-0.2,2.1-0.8,2.5c-0.5,0.4-1.5,0.6-2.6,0.6
				c-2.5,0-3.6-0.7-3.6-2.2c0-2.7,1.9-5.3,5-7.1c2.8-1.5,6.4-2.4,10.8-2.4c4.7,0,8.1,1.1,9.9,3.2c1.5,1.8,2.1,4.3,2.1,8.3
				c0,0.2,0,0.2-0.1,7.4l-0.1,7l-0.1,3.4c0,3.1,0.4,5.7,0.8,6.3c0.4,0.6,1.3,0.8,4.1,0.8V260.1z M285.2,239.7
				c-6.6,0.6-9.4,1.2-12.4,2.7c-3.2,1.6-4.9,4.5-4.9,8.4c0,4.6,2.5,7.8,6.2,7.8c3.8,0,7.6-2.2,9.4-5.4c1.2-2.1,1.7-5.2,1.7-10V239.7
				z"/>
		</g>
		<path class="st1" d="M205.6,39.9c0-2.6,0-8.9,0-8.9s-14,0-17,0c-7.2-11.7-19.5-18.1-35-18.1c-15.5,0-27.8,6.5-35,18.1
			c-3,0-17,0-17,0s0,6.4,0,8.9c-4.4,0-16.6,0-16.6,0v130.5h137.3V39.9C222.2,39.9,210,39.9,205.6,39.9z M214.9,163.1H92.3V47.2
			c4.4,0,16.6,0,16.6,0s0-6.4,0-8.9c4.2,0,13.9,0,13.9,0l1-1.9c7.3-13.4,20.2-16.2,29.8-16.2c9.6,0,22.5,2.8,29.8,16.2l1,1.9
			c0,0,9.6,0,13.9,0c0,2.6,0,8.9,0,8.9s12.2,0,16.6,0V163.1z M103.5,132.3v6.7h100.2v-6.7h-3.8l-1-40.9c0.3,0.2,0.7,0.3,1.1,0.3
			c1.3,0,2.3-1,2.3-2.3c0-0.6-0.2-1.2-0.6-1.6h1.8v-4h-99.6v4h1.8c-0.4,0.4-0.6,1-0.6,1.6c0,1.3,1,2.3,2.3,2.3c0.4,0,0.7-0.1,1-0.3
			l-1,40.9H103.5z M179.1,91.6c1.3,0,2.3-1,2.3-2.3c0-0.6-0.2-1.2-0.6-1.6h8.2c-0.4,0.4-0.6,1-0.6,1.6c0,1.3,1,2.3,2.3,2.3
			c0.4,0,0.7-0.1,1-0.2l-1,40.9h-11.5l-1-40.9C178.4,91.5,178.7,91.6,179.1,91.6z M158.2,91.6c1.3,0,2.3-1,2.3-2.3
			c0-0.6-0.2-1.2-0.6-1.6h8.2c-0.4,0.4-0.6,1-0.6,1.6c0,1.3,1,2.3,2.3,2.3c0.4,0,0.7-0.1,1-0.3l-1,40.9h-11.5l-1-40.9
			C157.6,91.5,157.9,91.6,158.2,91.6z M137.4,91.6c1.3,0,2.3-1,2.3-2.3c0-0.6-0.2-1.2-0.6-1.6h8.2c-0.4,0.4-0.6,1-0.6,1.6
			c0,1.3,1,2.3,2.3,2.3c0.4,0,0.7-0.1,1-0.2l-1,40.9h-11.5l-1-40.9C136.7,91.5,137.1,91.6,137.4,91.6z M116.6,91.6
			c1.3,0,2.3-1,2.3-2.3c0-0.6-0.2-1.2-0.6-1.6h8.2c-0.4,0.4-0.6,1-0.6,1.6c0,1.3,1,2.3,2.3,2.3c0.4,0,0.7-0.1,1-0.3l-1,40.9h-11.5
			l-1-40.9C115.9,91.5,116.3,91.6,116.6,91.6z M99.9,147.6h107.4v-4H99.9V147.6z M96.7,154.6h113.7v-4H96.7V154.6z M98.6,74.7
			l2.5,6.9c0,0,50.1-18,52.5-18.9c2.4,0.8,52.5,18.9,52.5,18.9l2.5-6.9L153.6,55L98.6,74.7z"/>
	</g>
</g>
</svg>
