<?xml version="1.0" encoding="utf-8"?>
<!-- Generator: Adobe Illustrator 19.1.0, SVG Export Plug-In . SVG Version: 6.00 Build 0)  -->
<svg version="1.1" xmlns="http://www.w3.org/2000/svg" xmlns:xlink="http://www.w3.org/1999/xlink" x="0px" y="0px"
	 viewBox="0 0 612 283" style="enable-background:new 0 0 612 283;" xml:space="preserve">
<style type="text/css">
	.st0{fill:#FFFFFF;}
</style>
<g id="Background">
</g>
<g id="Guides">
</g>
<g id="Foreground">
</g>
<g id="Layer_1">
	<g>
		<path class="st0" d="M236.4,154.3c-0.3-2.4-0.5-5.5-0.5-10.5c-4,6.9-10.6,11-18.2,11c-6.5,0-11.5-3.2-13.6-8.6
			c-1-2.8-1.4-6.9-1.4-15.8v-16.8c0-5.3-0.4-7.5-1.5-8.4c-0.6-0.6-1.5-0.8-3.5-0.9c-1.3,0-1.3,0-1.8,0V102l15.8-1
			c-0.5,9.5-0.6,11.9-0.6,19v8.9c0,10.3,0.2,13.1,1.4,16.6c1.2,3.8,4.1,5.7,8.3,5.7c5.6,0,10.6-3.7,13.3-9.9c1.5-3.5,1.8-5.7,1.8-12
			v-15.7c0-5.4-0.3-7.4-1.5-8.3c-0.6-0.6-1.6-0.9-3.5-1H229V102l15.8-1c-0.3,7.7-0.5,14.4-0.5,19v19.3c0,10.2,0.9,12.1,6.2,12.1h0.7
			v2.2L236.4,154.3z"/>
		<path class="st0" d="M277,89.8c6.1-7.7,15-11.6,26-11.6c11.1,0,19.8,3.9,26,11.6c5.6,7.1,8.5,16,8.5,26.8
			c0,10.7-2.9,19.7-8.5,26.6c-6.3,7.9-14.9,11.7-26,11.7c-11,0-20-4.1-26-11.7c-5.6-7.1-8.5-16-8.5-26.6
			C268.6,105.8,271.3,97,277,89.8z M284.4,141c4.1,7.3,10.5,11.1,18.7,11.1c8.2,0,14.6-3.9,18.7-11.1c3.7-6.6,5.5-14.6,5.5-24.5
			c0-9.9-1.8-17.9-5.5-24.5c-4.1-7.3-10.5-11.1-18.7-11.1c-8.2,0-14.6,3.9-18.7,11.1c-3.7,6.7-5.5,14.8-5.5,24.5
			C278.9,126.2,280.7,134.2,284.4,141z"/>
		<path class="st0" d="M360.8,139.1c0,6,0.3,8.7,1.3,10.1c1,1.4,2.7,2.1,5,2.1c2.2,0,4.2-0.5,6.4-1.8l0.9,2.6
			c-3.4,1.7-6.6,2.6-10.3,2.6c-5,0-8.8-1.7-10.5-5c-1.1-2-1.4-4.3-1.4-11.8v-33.1h-6.4v-2.3c6-0.5,9.1-4.5,10.6-14.1l4.7-1.3
			c-0.2,4.4-0.3,8.3-0.3,15H373v2.8h-12.3V139.1z"/>
		<path class="st0" d="M394.4,139.1c0,6,0.3,8.7,1.3,10.1c1,1.4,2.7,2.1,5,2.1c2.2,0,4.2-0.5,6.4-1.8l0.9,2.6
			c-3.4,1.7-6.6,2.6-10.3,2.6c-5,0-8.8-1.7-10.5-5c-1.1-2-1.4-4.3-1.4-11.8v-33.1h-6.4v-2.3c6-0.5,9.1-4.5,10.6-14.1l4.7-1.3
			c-0.2,4.4-0.3,8.3-0.3,15h12.3v2.8h-12.3V139.1z"/>
		<path class="st0" d="M462.7,153.4c-4,0.6-8.5,1-10.5,1c-3.1,0-3.9-1.6-4.3-8.5c-1.6,1.8-3,3-5,4.4c-4.5,3.3-8.1,4.4-13.3,4.4
			c-4.5,0-7.9-1-10.4-3.2c-2.8-2.5-4.5-6.5-4.5-10.8c0-8.1,5.1-13.3,15-15.5c5.3-1.2,10.7-1.9,18.2-2.5v-6.4c0-4.7-0.4-7.2-1.4-9.3
			c-1.3-2.7-4.2-4-8.4-4c-6.7,0-10.2,3.1-10.6,9.4c-0.1,2.1-0.3,2.9-1.1,3.5c-0.7,0.5-2,0.8-3.6,0.8c-3.5,0-5-0.9-5-3.1
			c0-3.7,2.7-7.4,6.9-9.8c3.9-2.1,8.9-3.3,14.9-3.3c6.5,0,11.2,1.5,13.7,4.5c2,2.5,3,5.9,3,11.5c0,0.3,0,0.3-0.2,10.3l-0.1,9.7
			l-0.1,4.7c0,4.3,0.5,8,1.1,8.8c0.6,0.8,1.8,1.1,5.7,1.1V153.4z M447.8,125.1c-9.1,0.8-13.1,1.6-17.2,3.7
			c-4.5,2.2-6.8,6.2-6.8,11.6c0,6.4,3.5,10.8,8.6,10.8c5.2,0,10.5-3.1,13.1-7.5c1.6-2.9,2.3-7.1,2.3-13.9V125.1z"/>
		<path class="st0" d="M488.2,154h-5.3l-12.7-42.4c-1.7-5.8-3-7-8-7.3V102h22.7v2.2c-4.9,0.2-6.8,1.2-6.8,3.8c0,0.8,0.3,2.4,0.9,4.5
			l9.2,32.1l13.5-41.3h4.2l13,41.3l8.9-30c0.8-2.6,1.2-4.5,1.2-5.9c0-1.7-1-3.1-2.9-3.7c-1.2-0.4-1.9-0.5-4.6-0.7V102h20v2.2
			c-5.6,0.3-7.6,2.2-10,10.1L519.1,154h-5.2l-12.8-39.2L488.2,154z"/>
		<path class="st0" d="M590.1,153.4c-4,0.6-8.5,1-10.5,1c-3.1,0-3.9-1.6-4.3-8.5c-1.6,1.8-3,3-5,4.4c-4.5,3.3-8.1,4.4-13.3,4.4
			c-4.5,0-7.9-1-10.4-3.2c-2.8-2.5-4.5-6.5-4.5-10.8c0-8.1,5.1-13.3,15-15.5c5.3-1.2,10.7-1.9,18.2-2.5v-6.4c0-4.7-0.4-7.2-1.4-9.3
			c-1.3-2.7-4.2-4-8.4-4c-6.7,0-10.2,3.1-10.6,9.4c-0.1,2.1-0.3,2.9-1.1,3.5c-0.7,0.5-2,0.8-3.6,0.8c-3.5,0-5-0.9-5-3.1
			c0-3.7,2.7-7.4,6.9-9.8c3.9-2.1,8.9-3.3,14.9-3.3c6.5,0,11.2,1.5,13.7,4.5c2,2.5,3,5.9,3,11.5c0,0.3,0,0.3-0.2,10.3l-0.1,9.7
			l-0.1,4.7c0,4.3,0.5,8,1.1,8.8c0.6,0.8,1.8,1.1,5.7,1.1V153.4z M575.3,125.1c-9.1,0.8-13.1,1.6-17.2,3.7
			c-4.5,2.2-6.8,6.2-6.8,11.6c0,6.4,3.5,10.8,8.6,10.8c5.2,0,10.5-3.1,13.1-7.5c1.6-2.9,2.3-7.1,2.3-13.9V125.1z"/>
	</g>
	<g>
		<path class="st0" d="M55.4,36.2c-2.9,0-16.3,0-16.3,0s0,6.1,0,8.6c-4.3,0-16,0-16,0v125.6h132V44.8c0,0-11.7,0-16,0
			c0-2.4,0-8.6,0-8.6s-13.4,0-16.3,0c-7-11.2-18.8-17.5-33.7-17.5C74.2,18.7,62.4,25,55.4,36.2z M57.4,43.2h2.1l1-1.8
			c7-12.9,19.5-15.6,28.7-15.6c9.2,0,21.7,2.7,28.7,15.6l1,1.8c0,0,9.2,0,13.3,0c0,2.4,0,8.6,0,8.6s11.7,0,16,0
			c0,6.4,0,105.1,0,111.5c-6.4,0-111.5,0-118,0c0-6.4,0-105.1,0-111.5c4.3,0,16,0,16,0s0-6.1,0-8.6C50.2,43.2,57.4,43.2,57.4,43.2z"
			/>
	</g>
	<g>
		<g>
			<polygon class="st0" points="37.5,144.5 140.8,144.5 140.8,148.4 37.5,148.4 37.5,144.5 			"/>
			<path class="st0" d="M89.1,146.4"/>
		</g>
	</g>
	<g>
		<g>
			<polygon class="st0" points="34.4,151.2 143.8,151.2 143.8,155.1 34.4,155.1 34.4,151.2 			"/>
			<path class="st0" d="M89.1,153.2"/>
		</g>
	</g>
	<g>
		<path class="st0" d="M87.9,59.7L36.3,78.3l2.4,6.6c0,0,48.2-17.3,50.5-18.1c2.3,0.8,50.5,18.1,50.5,18.1l2.4-6.6l-52.9-19
			L87.9,59.7z"/>
	</g>
	<path class="st0" d="M133.6,133.6l-1-39.4c0.3,0.2,0.6,0.3,1,0.3c1.2,0,2.2-1,2.2-2.2c0-0.6-0.2-1.1-0.6-1.5h1.8v-3.9H41.2v3.9H43
		c-0.4,0.4-0.6,0.9-0.6,1.5c0,1.2,1,2.2,2.2,2.2c0.4,0,0.7-0.1,1-0.2l-0.9,39.3h-3.6v6.4h96.3v-6.4H133.6z M64.6,133.6H53.5l-1-39.3
		c0.3,0.2,0.6,0.2,1,0.2c1.2,0,2.2-1,2.2-2.2c0-0.6-0.2-1.1-0.6-1.5H63c-0.4,0.4-0.6,0.9-0.6,1.5c0,1.2,1,2.2,2.2,2.2
		c0.4,0,0.7-0.1,1-0.2L64.6,133.6z M84.6,133.6H73.6l-1-39.3c0.3,0.1,0.6,0.2,1,0.2c1.2,0,2.2-1,2.2-2.2c0-0.6-0.2-1.1-0.6-1.5h7.9
		c-0.4,0.4-0.6,0.9-0.6,1.5c0,1.2,1,2.2,2.2,2.2c0.4,0,0.7-0.1,1-0.2L84.6,133.6z M104.6,133.6h-11l-1-39.3c0.3,0.1,0.6,0.2,0.9,0.2
		c1.2,0,2.2-1,2.2-2.2c0-0.6-0.2-1.1-0.6-1.5h7.9c-0.4,0.4-0.6,0.9-0.6,1.5c0,1.2,1,2.2,2.2,2.2c0.4,0,0.7-0.1,1-0.3L104.6,133.6z
		 M124.7,133.6h-11l-1-39.3c0.3,0.1,0.6,0.2,1,0.2c1.2,0,2.2-1,2.2-2.2c0-0.6-0.2-1.1-0.6-1.5h7.9c-0.4,0.4-0.6,0.9-0.6,1.5
		c0,1.2,1,2.2,2.2,2.2c0.3,0,0.7-0.1,1-0.2L124.7,133.6z"/>
	<g>
		<path class="st0" d="M221,203.1c-0.7-3.8-1.9-4.7-6.1-4.7h-4.1v9.7h3.4c3.5,0,4.1-0.4,4.4-3.2h0.9v7.4h-0.9
			c-0.4-2.8-1-3.2-4.4-3.2h-3.4v7.3c0,2.9,0.2,3.2,2.7,3.2v0.8h-7.9v-0.8c2.2-0.1,2.4-0.3,2.4-3.2v-14.9c0-2-0.1-2.1-0.2-2.3
			c-0.2-0.7-0.8-0.9-2.2-0.9v-0.8h16l0.4,5.6L221,203.1z"/>
		<path class="st0" d="M236.3,220.6c-0.9,0-1.2-0.5-1.3-2.6c-0.5,0.6-0.9,0.9-1.5,1.4c-1.4,1-2.5,1.4-4.1,1.4c-1.4,0-2.4-0.3-3.2-1
			c-0.9-0.8-1.4-2-1.4-3.3c0-2.5,1.6-4.1,4.6-4.8c1.6-0.4,3.3-0.6,5.6-0.8v-2c0-1.5-0.1-2.2-0.4-2.9c-0.4-0.8-1.3-1.2-2.6-1.2
			c-2.1,0-3.2,0.9-3.3,2.9c0,0.7-0.1,0.9-0.3,1.1c-0.2,0.2-0.6,0.3-1.1,0.3c-1.1,0-1.5-0.3-1.5-0.9c0-1.1,0.8-2.3,2.1-3
			c1.2-0.7,2.7-1,4.6-1c2,0,3.5,0.5,4.2,1.4c0.6,0.8,0.9,1.8,0.9,3.6c0,0.1,0,0.1-0.1,3.2l0,3l0,1.5c0,1.3,0.2,2.5,0.3,2.7
			c0.2,0.3,0.6,0.3,1.8,0.3v0.7C238.3,220.5,237,220.6,236.3,220.6z M235,211.5c-2.8,0.3-4,0.5-5.3,1.1c-1.4,0.7-2.1,1.9-2.1,3.6
			c0,2,1.1,3.3,2.7,3.3c1.6,0,3.2-0.9,4-2.3c0.5-0.9,0.7-2.2,0.7-4.3V211.5z"/>
		<path class="st0" d="M250,220.7c-4.4,0-7.5-3.3-7.5-8.2c0-5.1,3.1-8.6,7.7-8.6c1.8,0,3.5,0.6,4.7,1.6c0.8,0.8,1.4,1.7,1.4,2.5
			c0,0.6-0.6,1-1.6,1c-0.4,0-0.9-0.1-1.1-0.3c-0.2-0.2-0.2-0.3-0.3-1.1c-0.2-1.7-1.5-2.9-3.3-2.9c-2.9,0-4.6,2.6-4.6,7.2
			c0,4.8,2,7.7,5.3,7.7c2.3,0,4-1.3,5.1-3.8l0.7,0.4C255.2,219.2,253.1,220.7,250,220.7z"/>
		<path class="st0" d="M271,220.5c-0.1-0.8-0.2-1.7-0.2-3.2c-1.2,2.1-3.3,3.4-5.6,3.4c-2,0-3.6-1-4.2-2.6c-0.3-0.9-0.4-2.1-0.4-4.9
			V208c0-1.6-0.1-2.3-0.5-2.6c-0.2-0.2-0.5-0.3-1.1-0.3c-0.4,0-0.4,0-0.6,0v-0.7l4.9-0.3c-0.2,2.9-0.2,3.7-0.2,5.9v2.7
			c0,3.2,0.1,4,0.4,5.1c0.4,1.2,1.3,1.8,2.6,1.8c1.7,0,3.3-1.1,4.1-3.1c0.5-1.1,0.6-1.8,0.6-3.7V208c0-1.7-0.1-2.3-0.5-2.6
			c-0.2-0.2-0.5-0.3-1.1-0.3h-0.6v-0.7l4.9-0.3c-0.1,2.4-0.2,4.4-0.2,5.9v6c0,3.2,0.3,3.7,1.9,3.7h0.2v0.7L271,220.5z"/>
		<path class="st0" d="M278,220.3v-0.7c2.1-0.1,2.2-0.3,2.2-3.2V201c0-1.5-0.1-2.3-0.5-2.6c-0.2-0.2-0.7-0.3-1.8-0.3v-0.7l5-0.3
			c-0.1,2.1-0.2,4.6-0.2,6.3v12.9c0,2.9,0.2,3.2,2.3,3.2v0.7H278z"/>
		<path class="st0" d="M293.4,220.7c-1.5,0-2.7-0.5-3.2-1.5c-0.3-0.6-0.4-1.3-0.4-3.7v-10.2h-2v-0.7c1.9-0.2,2.8-1.4,3.3-4.4
			l1.5-0.4c-0.1,1.4-0.1,2.6-0.1,4.6h3.8v0.9h-3.8v10.6c0,1.9,0.1,2.7,0.4,3.1c0.3,0.4,0.8,0.7,1.5,0.7c0.7,0,1.3-0.2,2-0.6l0.3,0.8
			C295.5,220.4,294.5,220.7,293.4,220.7z"/>
		<path class="st0" d="M306.5,220.7c-4.5,0-7.6-3.3-7.6-8.2c0-5.1,3-8.6,7.5-8.6c2.9,0,5,1.5,6,4c0.3,0.9,0.4,1.6,0.5,3.5h-11.1
			c0,2.2,0.2,3.4,0.7,4.7c0.9,2.3,2.5,3.5,4.7,3.5c2.2,0,3.9-1.2,5.2-3.6l0.7,0.4C311.8,219.4,309.6,220.7,306.5,220.7z
			 M309.6,207.1c-0.7-1.5-1.8-2.3-3.2-2.3c-1.5,0-2.8,0.9-3.6,2.5c-0.5,0.9-0.7,1.7-0.9,3.4h8.3C310.2,208.9,310,208,309.6,207.1z
			 M306.5,202.4l-0.8-0.4l1.5-4.2h3.2l0.1,0.5L306.5,202.4z"/>
		<path class="st0" d="M339.1,220.6l-0.1-2.7c-1.3,2-3.1,2.9-5.4,2.9c-1.8,0-3.5-0.8-4.6-2.2c-1.2-1.5-1.8-3.5-1.8-5.9
			c0-5.2,2.9-8.8,7.1-8.8c1.9,0,3.2,0.6,4.6,2.1v-4.8c0-3.1,0-3.1-2.3-3.2v-0.7l5.1-0.3c-0.1,2-0.2,3.8-0.2,6.3v12.2
			c0,3,0.1,3,0.2,3.4c0.2,0.4,0.6,0.6,1.5,0.6h0.3v0.7L339.1,220.6z M334.5,204.7c-2.8,0-4.4,2.7-4.4,7.6c0,4.9,1.4,7.5,4.1,7.5
			c3,0,4.8-2.8,4.8-7.5C338.9,207.5,337.3,204.7,334.5,204.7z"/>
		<path class="st0" d="M354,220.7c-4.5,0-7.6-3.3-7.6-8.2c0-5.1,3-8.6,7.5-8.6c2.9,0,5,1.5,6,4c0.3,0.9,0.4,1.6,0.5,3.5h-11.1
			c0,2.2,0.2,3.4,0.7,4.7c0.9,2.3,2.5,3.5,4.7,3.5c2.2,0,3.9-1.2,5.2-3.6l0.7,0.4C359.2,219.4,357.1,220.7,354,220.7z M357.1,207.1
			c-0.7-1.5-1.8-2.3-3.2-2.3c-1.5,0-2.8,0.9-3.6,2.5c-0.5,0.9-0.7,1.7-0.9,3.4h8.3C357.6,208.9,357.5,208,357.1,207.1z"/>
		<path class="st0" d="M393.2,220.3v-0.7c2.1-0.1,2.3-0.3,2.3-3.2v-6.3c0-2.1-0.1-3-0.6-3.8c-0.4-0.8-1.2-1.2-2.4-1.2
			c-1.1,0-2,0.6-2.9,1.9c-0.8,1.2-1.2,2.3-1.2,3.8v5.6c0,2.9,0.2,3.2,2.3,3.2v0.7h-7.2v-0.7c2.1-0.1,2.3-0.3,2.3-3.2v-6.7
			c0-3.1-0.9-4.6-2.8-4.6c-1.2,0-2.3,0.6-3.2,1.8c-0.8,1-1.1,2.1-1.1,3.4v6.1c0,3,0.2,3.2,2.3,3.2v0.7h-7.2v-0.7
			c2.1-0.1,2.3-0.3,2.3-3.2v-8.5c0-2.4-0.3-2.8-2.2-2.8v-0.7l4.7-0.3v3.3c1.2-2.2,2.9-3.4,5.2-3.4c2.3,0,3.8,1.3,4.3,3.7
			c1.3-2.6,3-3.7,5.4-3.7c1.5,0,2.8,0.5,3.6,1.5c0.7,0.9,1,2,1,4.2v6.8c0,2.9,0.2,3.2,2.3,3.2v0.7H393.2z"/>
		<path class="st0" d="M410.7,220.7c-4.5,0-7.6-3.3-7.6-8.2c0-5.1,3-8.6,7.5-8.6c2.9,0,5,1.5,6,4c0.3,0.9,0.4,1.6,0.5,3.5H406
			c0,2.2,0.2,3.4,0.7,4.7c0.9,2.3,2.5,3.5,4.7,3.5c2.2,0,3.9-1.2,5.2-3.6l0.7,0.4C415.9,219.4,413.8,220.7,410.7,220.7z
			 M413.7,207.1c-0.7-1.5-1.8-2.3-3.2-2.3c-1.5,0-2.8,0.9-3.6,2.5c-0.5,0.9-0.7,1.7-0.9,3.4h8.3C414.3,208.9,414.2,208,413.7,207.1z
			 M410.6,202.4l-0.8-0.4l1.5-4.2h3.2l0.1,0.5L410.6,202.4z"/>
		<path class="st0" d="M432.4,220.6l-0.1-2.7c-1.3,2-3.1,2.9-5.4,2.9c-1.8,0-3.5-0.8-4.6-2.2c-1.2-1.5-1.8-3.5-1.8-5.9
			c0-5.2,2.9-8.8,7.1-8.8c1.9,0,3.2,0.6,4.6,2.1v-4.8c0-3.1,0-3.1-2.3-3.2v-0.7l5.1-0.3c-0.1,2-0.2,3.8-0.2,6.3v12.2
			c0,3,0.1,3,0.2,3.4c0.2,0.4,0.6,0.6,1.5,0.6h0.3v0.7L432.4,220.6z M427.8,204.7c-2.8,0-4.4,2.7-4.4,7.6c0,4.9,1.4,7.5,4.1,7.5
			c3,0,4.8-2.8,4.8-7.5C432.3,207.5,430.7,204.7,427.8,204.7z"/>
		<path class="st0" d="M447.3,220.7c-4.5,0-7.6-3.3-7.6-8.2c0-5.1,3-8.6,7.5-8.6c2.9,0,5,1.5,6,4c0.3,0.9,0.4,1.6,0.5,3.5h-11.1
			c0,2.2,0.2,3.4,0.7,4.7c0.9,2.3,2.5,3.5,4.7,3.5c2.2,0,3.9-1.2,5.2-3.6l0.7,0.4C452.6,219.4,450.4,220.7,447.3,220.7z
			 M450.4,207.1c-0.7-1.5-1.8-2.3-3.2-2.3c-1.5,0-2.8,0.9-3.6,2.5c-0.5,0.9-0.7,1.7-0.9,3.4h8.3C451,208.9,450.8,208,450.4,207.1z"
			/>
		<path class="st0" d="M464.5,220.7c-4.4,0-7.5-3.3-7.5-8.2c0-5.1,3.1-8.6,7.7-8.6c1.8,0,3.5,0.6,4.7,1.6c0.8,0.8,1.4,1.7,1.4,2.5
			c0,0.6-0.6,1-1.6,1c-0.4,0-0.8-0.1-1.1-0.3c-0.2-0.2-0.2-0.3-0.3-1.1c-0.2-1.7-1.5-2.9-3.3-2.9c-2.9,0-4.6,2.6-4.6,7.2
			c0,4.8,2,7.7,5.3,7.7c2.3,0,4-1.3,5.1-3.8l0.7,0.4C469.7,219.2,467.6,220.7,464.5,220.7z"/>
		<path class="st0" d="M473.4,220.3v-0.7c2.2-0.1,2.3-0.3,2.3-3.2V208c0-1.6-0.1-2.3-0.5-2.6c-0.3-0.2-0.8-0.3-1.9-0.3v-0.7l5.1-0.3
			c-0.1,1.8-0.2,4.6-0.2,5.9v6.4c0,2.9,0.2,3.2,2.3,3.2v0.7H473.4z M476.9,200.9c-1,0-1.8-0.8-1.8-1.8c0-1,0.8-1.8,1.8-1.8
			c1,0,1.8,0.8,1.8,1.8C478.7,200.1,477.9,200.9,476.9,200.9z"/>
		<path class="st0" d="M493.4,220.3v-0.7c1,0,1.6-0.2,1.9-0.5c0.2-0.3,0.3-0.5,0.3-1c0-0.3,0.1-1.5,0.1-1.7V210
			c0-1.6-0.2-2.7-0.5-3.4c-0.5-1.1-1.5-1.7-2.8-1.7c-1.5,0-2.7,0.7-3.6,2.1c-0.7,1-1.1,2.6-1.1,3.8v5.5c0,3,0.2,3.2,2.3,3.2v0.7
			h-7.2v-0.7c2.1-0.1,2.3-0.3,2.3-3.2v-8.5c0-2.4-0.4-2.8-2.2-2.8v-0.7l4.8-0.3v3.2c1.4-2.4,2.9-3.3,5.6-3.3c2,0,3.3,0.6,4.1,2
			c0.6,0.9,0.8,2,0.8,3.9v6.5c0,3,0.2,3.2,2.3,3.2v0.7H493.4z"/>
		<path class="st0" d="M510.8,220.7c-4.5,0-7.6-3.3-7.6-8.2c0-5.1,3-8.6,7.5-8.6c2.9,0,5,1.5,6,4c0.3,0.9,0.4,1.6,0.5,3.5h-11.1
			c0,2.2,0.2,3.4,0.7,4.7c0.9,2.3,2.5,3.5,4.7,3.5c2.2,0,3.9-1.2,5.2-3.6l0.7,0.4C516,219.4,513.9,220.7,510.8,220.7z M513.9,207.1
			c-0.7-1.5-1.8-2.3-3.3-2.3c-1.5,0-2.8,0.9-3.6,2.5c-0.5,0.9-0.7,1.7-0.9,3.4h8.3C514.4,208.9,514.3,208,513.9,207.1z"/>
	</g>
	<g>
		<path class="st0" d="M221,238.2c-0.7-3.8-1.9-4.7-6.1-4.7h-4.1v9.7h3.4c3.5,0,4.1-0.4,4.4-3.2h0.9v7.4h-0.9
			c-0.4-2.8-1-3.2-4.4-3.2h-3.4v7.3c0,2.9,0.2,3.2,2.7,3.2v0.8h-7.9v-0.8c2.2-0.1,2.4-0.3,2.4-3.2v-14.9c0-2-0.1-2-0.2-2.3
			c-0.2-0.7-0.8-0.9-2.2-0.9v-0.8h16l0.4,5.6L221,238.2z"/>
		<path class="st0" d="M236.3,255.6c-0.9,0-1.2-0.5-1.3-2.6c-0.5,0.6-0.9,0.9-1.5,1.4c-1.4,1-2.5,1.4-4.1,1.4c-1.4,0-2.4-0.3-3.2-1
			c-0.9-0.8-1.4-2-1.4-3.3c0-2.5,1.6-4.1,4.6-4.8c1.6-0.4,3.3-0.6,5.6-0.8v-2c0-1.5-0.1-2.2-0.4-2.9c-0.4-0.8-1.3-1.2-2.6-1.2
			c-2.1,0-3.2,0.9-3.3,2.9c0,0.7-0.1,0.9-0.3,1.1c-0.2,0.2-0.6,0.3-1.1,0.3c-1.1,0-1.5-0.3-1.5-0.9c0-1.1,0.8-2.3,2.1-3
			c1.2-0.7,2.7-1,4.6-1c2,0,3.5,0.5,4.2,1.4c0.6,0.8,0.9,1.8,0.9,3.6c0,0.1,0,0.1-0.1,3.2l0,3l0,1.5c0,1.3,0.2,2.5,0.3,2.7
			c0.2,0.3,0.6,0.3,1.8,0.3v0.7C238.3,255.5,237,255.6,236.3,255.6z M235,246.6c-2.8,0.3-4,0.5-5.3,1.1c-1.4,0.7-2.1,1.9-2.1,3.6
			c0,2,1.1,3.3,2.6,3.3c1.6,0,3.2-0.9,4-2.3c0.5-0.9,0.7-2.2,0.7-4.3V246.6z"/>
		<path class="st0" d="M250,255.8c-4.4,0-7.5-3.3-7.5-8.2c0-5.1,3.1-8.6,7.7-8.6c1.8,0,3.5,0.6,4.7,1.6c0.8,0.8,1.4,1.7,1.4,2.5
			c0,0.6-0.6,1-1.6,1c-0.4,0-0.9-0.1-1.1-0.3c-0.2-0.2-0.2-0.3-0.3-1.1c-0.2-1.7-1.5-2.9-3.3-2.9c-2.9,0-4.6,2.6-4.6,7.2
			c0,4.8,2,7.7,5.3,7.7c2.3,0,4-1.3,5.1-3.8l0.7,0.4C255.2,254.3,253.1,255.8,250,255.8z"/>
		<path class="st0" d="M271,255.6c-0.1-0.8-0.2-1.7-0.2-3.2c-1.2,2.1-3.3,3.4-5.6,3.4c-2,0-3.6-1-4.2-2.7c-0.3-0.9-0.4-2.1-0.4-4.9
			V243c0-1.6-0.1-2.3-0.5-2.6c-0.2-0.2-0.5-0.3-1.1-0.3c-0.4,0-0.4,0-0.6,0v-0.7l4.9-0.3c-0.2,2.9-0.2,3.7-0.2,5.9v2.7
			c0,3.2,0.1,4,0.4,5.1c0.4,1.2,1.3,1.8,2.6,1.8c1.7,0,3.3-1.1,4.1-3.1c0.5-1.1,0.6-1.8,0.6-3.7V243c0-1.7-0.1-2.3-0.5-2.6
			c-0.2-0.2-0.5-0.3-1.1-0.3h-0.6v-0.7l4.9-0.3c-0.1,2.4-0.2,4.4-0.2,5.9v6c0,3.2,0.3,3.7,1.9,3.7h0.2v0.7L271,255.6z"/>
		<path class="st0" d="M278,255.4v-0.7c2.1-0.1,2.2-0.3,2.2-3.2v-15.4c0-1.5-0.1-2.3-0.5-2.6c-0.2-0.2-0.7-0.3-1.8-0.3v-0.7l5-0.3
			c-0.1,2.1-0.2,4.6-0.2,6.3v12.9c0,2.9,0.2,3.2,2.3,3.2v0.7H278z"/>
		<path class="st0" d="M293.4,255.7c-1.5,0-2.7-0.5-3.2-1.5c-0.3-0.6-0.4-1.3-0.4-3.7v-10.2h-2v-0.7c1.9-0.2,2.8-1.4,3.3-4.4
			l1.4-0.4c-0.1,1.4-0.1,2.6-0.1,4.6h3.8v0.9h-3.8v10.6c0,1.9,0.1,2.7,0.4,3.1c0.3,0.4,0.8,0.7,1.5,0.7c0.7,0,1.3-0.2,2-0.6l0.3,0.8
			C295.5,255.5,294.5,255.7,293.4,255.7z"/>
		<path class="st0" d="M311.1,243.6l-6,15.2c-0.4,0.9-0.9,1.8-1.3,2.3c-0.5,0.7-1.5,1.1-2.4,1.1c-1.1,0-1.7-0.5-1.7-1.6
			c0-0.7,0.3-1.1,0.9-1.1c0.1,0,0.3,0,0.5,0c0.7,0.1,0.9,0.1,1.1,0.1c1.1,0,1.7-0.5,2.4-2.2l0.7-1.8l-4.8-12.4c-1-2.6-1.3-2.9-2.8-3
			v-0.7h7v0.7c-1.4,0-1.9,0.3-1.9,1.1c0,0.5,0.1,0.8,0.4,1.8l3.4,9.4l3.6-9.2c0.3-0.8,0.4-1.2,0.4-1.7c0-1-0.6-1.4-2.3-1.5v-0.7h6.1
			v0.7C312.8,240.3,312.1,241.1,311.1,243.6z"/>
		<path class="st0" d="M334.9,255.8c-4.6,0-7.6-3.2-7.6-8.1c0-2.6,0.9-5,2.3-6.5c1.3-1.4,3.3-2.1,5.5-2.1c4.6,0,7.6,3.2,7.6,8.2
			C342.7,252.5,339.7,255.8,334.9,255.8z M334.9,239.7c-3,0-4.7,2.7-4.7,7.5c0,5,1.7,7.8,4.8,7.8c3.1,0,4.8-2.7,4.8-7.5
			C339.7,242.6,338,239.7,334.9,239.7z"/>
		<path class="st0" d="M355.1,235.5c-0.5,0-0.9-0.1-1-0.3c-0.2-0.2-0.2-0.2-0.3-1c-0.2-1-0.6-1.4-1.5-1.4c-1.2,0-1.9,1-1.9,3.1
			c0,0.5,0,0.8,0,2.3c0,0.3,0,0.7,0,1.2h4.2v0.9h-4.2v11.1c0,2.9,0.2,3.2,2.5,3.2v0.7h-7.4v-0.7c2.1-0.1,2.3-0.3,2.3-3.2v-11.1h-2.4
			v-0.9h2.4c0-1.2-0.1-2.4-0.1-2.9c0-1.4,0.3-2.3,1.2-3.1c0.9-0.8,2.2-1.3,3.7-1.3c2.2,0,4,1,4,2.3
			C356.7,235.2,356.1,235.5,355.1,235.5z"/>
		<path class="st0" d="M386.4,255.4v-0.8c2.2-0.1,2.4-0.3,2.4-3.2v-17.3l-8.2,21h-1.4l-8.3-20.9v15.3c0,2.9,0.1,3.8,0.5,4.3
			c0.4,0.6,1,0.8,2.3,0.9v0.8h-6.8v-0.8c1.1,0,1.7-0.3,2.1-0.9c0.4-0.6,0.6-1.8,0.6-4.3v-12.9c0-1.6-0.1-2.3-0.5-2.7
			c-0.3-0.3-0.7-0.4-1.9-0.5v-0.8h6l7.4,18.7l7.4-18.7h5.9v0.8c-2.3,0.1-2.4,0.3-2.4,3.2v14.9c0,2.9,0.2,3.2,2.4,3.2v0.8H386.4z"/>
		<path class="st0" d="M404.7,255.8c-4.5,0-7.6-3.3-7.6-8.2c0-5.1,3-8.6,7.5-8.6c2.9,0,5,1.5,6,4c0.3,0.9,0.4,1.6,0.5,3.5H400
			c0,2.2,0.2,3.4,0.7,4.7c0.9,2.3,2.5,3.5,4.7,3.5c2.2,0,3.9-1.2,5.2-3.6l0.7,0.4C410,254.4,407.8,255.8,404.7,255.8z M407.8,242.1
			c-0.7-1.5-1.8-2.3-3.2-2.3c-1.5,0-2.8,0.9-3.6,2.5c-0.5,0.9-0.7,1.7-0.9,3.4h8.3C408.4,244,408.2,243,407.8,242.1z"/>
		<path class="st0" d="M426.4,255.6l-0.1-2.7c-1.3,2-3.1,2.9-5.4,2.9c-1.8,0-3.5-0.8-4.6-2.2c-1.2-1.5-1.8-3.5-1.8-5.9
			c0-5.2,2.9-8.8,7.1-8.8c1.9,0,3.2,0.6,4.6,2.1v-4.8c0-3.1,0-3.1-2.3-3.2v-0.7l5.1-0.3c-0.1,2-0.2,3.8-0.2,6.3v12.2
			c0,3,0.1,3,0.2,3.4c0.2,0.4,0.6,0.6,1.5,0.6h0.3v0.7L426.4,255.6z M421.8,239.8c-2.8,0-4.4,2.7-4.4,7.6c0,4.9,1.4,7.5,4.1,7.5
			c3,0,4.8-2.8,4.8-7.5C426.3,242.5,424.7,239.8,421.8,239.8z"/>
		<path class="st0" d="M433.3,255.4v-0.7c2.2-0.1,2.3-0.3,2.3-3.2V243c0-1.6-0.1-2.3-0.5-2.6c-0.3-0.2-0.8-0.3-1.9-0.3v-0.7l5.1-0.3
			c-0.1,1.8-0.2,4.6-0.2,5.9v6.4c0,2.9,0.2,3.2,2.3,3.2v0.7H433.3z M436.8,236c-1,0-1.8-0.8-1.8-1.8c0-1,0.8-1.8,1.8-1.8
			c1,0,1.8,0.8,1.8,1.8C438.6,235.2,437.8,236,436.8,236z"/>
		<path class="st0" d="M451,255.8c-4.4,0-7.5-3.3-7.5-8.2c0-5.1,3.1-8.6,7.7-8.6c1.8,0,3.5,0.6,4.7,1.6c0.8,0.8,1.4,1.7,1.4,2.5
			c0,0.6-0.6,1-1.6,1c-0.4,0-0.9-0.1-1.1-0.3c-0.2-0.2-0.2-0.3-0.3-1.1c-0.2-1.7-1.5-2.9-3.3-2.9c-2.9,0-4.6,2.6-4.6,7.2
			c0,4.8,2,7.7,5.3,7.7c2.3,0,4-1.3,5.1-3.8l0.7,0.4C456.2,254.3,454,255.8,451,255.8z"/>
		<path class="st0" d="M459.8,255.4v-0.7c2.2-0.1,2.3-0.3,2.3-3.2V243c0-1.6-0.1-2.3-0.5-2.6c-0.3-0.2-0.8-0.3-1.9-0.3v-0.7l5.1-0.3
			c-0.1,1.8-0.2,4.6-0.2,5.9v6.4c0,2.9,0.2,3.2,2.3,3.2v0.7H459.8z M463.4,236c-1,0-1.8-0.8-1.8-1.8c0-1,0.8-1.8,1.8-1.8
			c1,0,1.8,0.8,1.8,1.8C465.1,235.2,464.3,236,463.4,236z"/>
		<path class="st0" d="M479.9,255.4v-0.7c1,0,1.6-0.2,1.9-0.5c0.2-0.3,0.3-0.5,0.3-1c0-0.3,0.1-1.5,0.1-1.7v-6.3
			c0-1.6-0.2-2.7-0.5-3.4c-0.5-1.1-1.5-1.7-2.8-1.7c-1.5,0-2.7,0.7-3.6,2.1c-0.7,1-1.1,2.6-1.1,3.8v5.5c0,3,0.2,3.2,2.3,3.2v0.7
			h-7.2v-0.7c2.1-0.1,2.3-0.3,2.3-3.2V243c0-2.4-0.4-2.8-2.2-2.8v-0.7l4.8-0.3v3.2c1.4-2.4,2.9-3.3,5.6-3.3c2,0,3.3,0.6,4.1,2
			c0.6,0.9,0.8,2,0.8,3.9v6.5c0,3,0.2,3.2,2.3,3.2v0.7H479.9z"/>
		<path class="st0" d="M497.3,255.8c-4.5,0-7.6-3.3-7.6-8.2c0-5.1,3-8.6,7.5-8.6c2.9,0,5,1.5,6,4c0.3,0.9,0.4,1.6,0.5,3.5h-11.1
			c0,2.2,0.2,3.4,0.7,4.7c0.9,2.3,2.5,3.5,4.7,3.5c2.2,0,3.9-1.2,5.2-3.6l0.7,0.4C502.5,254.4,500.4,255.8,497.3,255.8z
			 M500.3,242.1c-0.7-1.5-1.8-2.3-3.2-2.3c-1.5,0-2.8,0.9-3.6,2.5c-0.5,0.9-0.7,1.7-0.9,3.4h8.3C500.9,244,500.7,243,500.3,242.1z"
			/>
	</g>
</g>
</svg>
