<?xml version="1.0" encoding="utf-8"?>
<!-- Generator: Adobe Illustrator 19.1.0, SVG Export Plug-In . SVG Version: 6.00 Build 0)  -->
<svg version="1.1" id="Layer_1" xmlns="http://www.w3.org/2000/svg" xmlns:xlink="http://www.w3.org/1999/xlink" x="0px" y="0px"
	 viewBox="0 0 792 168.1" style="enable-background:new 0 0 792 168.1;" xml:space="preserve">
<style type="text/css">
	.st0{fill:#BCB4AD;}
</style>
<path class="st0" d="M792,168.1V92.6c0,0-159.3,0-173.3,0c0-8,0-28.1,0-28.1s-107.4,0-117.2,0C478.7,27.6,439.8,7.4,390.9,7.4
	c-48.8,0-87.8,20.2-110.5,57.1c-9.8,0-110.2,0-110.2,0s0,20.1,0,28.1c-14,0-169.2,0-169.2,0v75.5 M792,168.1 M1,168.1 M24,168.1
	 M769,168.1 M24,168.1c0-28.1,0-47.8,0-52.5c14,0,169.2,0,169.2,0s0-20.1,0-28.1c13.4,0,93.8,0,93.8,0h6.8l3.3-6
	c23-42.3,63.7-51.1,93.9-51.1c30.2,0,70.9,8.9,93.9,51.1l3.3,6c0,0,94.3,0,107.7,0c0,8,0,28.1,0,28.1s159.3,0,173.3,0
	c0,4.7,0,24.4,0,52.5"/>
</svg>
