<?xml version="1.0" encoding="utf-8"?>
<!-- Generator: Adobe Illustrator 19.1.0, SVG Export Plug-In . SVG Version: 6.00 Build 0)  -->
<svg version="1.1" xmlns="http://www.w3.org/2000/svg" xmlns:xlink="http://www.w3.org/1999/xlink" x="0px" y="0px"
	 viewBox="0 0 152 173" style="enable-background:new 0 0 152 173;" xml:space="preserve">
<style type="text/css">
	.st0{fill:#FFFFFF;}
</style>
<g id="Background">
</g>
<g id="Guides">
</g>
<g id="Foreground">
</g>
<g id="Layer_1">
	<g>
		<path class="st0" d="M42.4,30.2c-2.9,0-16.3,0-16.3,0s0,6.1,0,8.6c-4.3,0-16,0-16,0v125.6h132V38.8c0,0-11.7,0-16,0
			c0-2.4,0-8.6,0-8.6s-13.4,0-16.3,0C102.8,19,91,12.7,76.1,12.7C61.2,12.7,49.4,19,42.4,30.2z M44.4,37.2h2.1l1-1.8
			c7-12.9,19.5-15.6,28.7-15.6c9.2,0,21.7,2.7,28.7,15.6l1,1.8c0,0,9.2,0,13.3,0c0,2.4,0,8.6,0,8.6s11.7,0,16,0
			c0,6.4,0,105.1,0,111.5c-6.4,0-111.5,0-118,0c0-6.4,0-105.1,0-111.5c4.3,0,16,0,16,0s0-6.1,0-8.6C37.2,37.2,44.4,37.2,44.4,37.2z"
			/>
	</g>
	<g>
		<g>
			<polygon class="st0" points="24.5,138.5 127.8,138.5 127.8,142.4 24.5,142.4 24.5,138.5 			"/>
			<path class="st0" d="M76.1,140.4"/>
		</g>
	</g>
	<g>
		<g>
			<polygon class="st0" points="21.4,145.2 130.8,145.2 130.8,149.1 21.4,149.1 21.4,145.2 			"/>
			<path class="st0" d="M76.1,147.2"/>
		</g>
	</g>
	<g>
		<path class="st0" d="M74.9,53.7L23.3,72.3l2.4,6.6c0,0,48.2-17.3,50.5-18.1c2.3,0.8,50.5,18.1,50.5,18.1l2.4-6.6l-52.9-19
			L74.9,53.7z"/>
	</g>
	<path class="st0" d="M120.6,127.6l-1-39.4c0.3,0.2,0.6,0.3,1,0.3c1.2,0,2.2-1,2.2-2.2c0-0.6-0.2-1.1-0.6-1.5h1.8v-3.9H28.2v3.9H30
		c-0.4,0.4-0.6,0.9-0.6,1.5c0,1.2,1,2.2,2.2,2.2c0.4,0,0.7-0.1,1-0.2l-0.9,39.3h-3.6v6.4h96.3v-6.4H120.6z M51.6,127.6H40.5l-1-39.3
		c0.3,0.2,0.6,0.2,1,0.2c1.2,0,2.2-1,2.2-2.2c0-0.6-0.2-1.1-0.6-1.5H50c-0.4,0.4-0.6,0.9-0.6,1.5c0,1.2,1,2.2,2.2,2.2
		c0.4,0,0.7-0.1,1-0.2L51.6,127.6z M71.6,127.6H60.6l-1-39.3c0.3,0.1,0.6,0.2,1,0.2c1.2,0,2.2-1,2.2-2.2c0-0.6-0.2-1.1-0.6-1.5h7.9
		c-0.4,0.4-0.6,0.9-0.6,1.5c0,1.2,1,2.2,2.2,2.2c0.4,0,0.7-0.1,1-0.2L71.6,127.6z M91.6,127.6h-11l-1-39.3c0.3,0.1,0.6,0.2,0.9,0.2
		c1.2,0,2.2-1,2.2-2.2c0-0.6-0.2-1.1-0.6-1.5H90c-0.4,0.4-0.6,0.9-0.6,1.5c0,1.2,1,2.2,2.2,2.2c0.4,0,0.7-0.1,1-0.3L91.6,127.6z
		 M111.7,127.6h-11l-1-39.3c0.3,0.1,0.6,0.2,1,0.2c1.2,0,2.2-1,2.2-2.2c0-0.6-0.2-1.1-0.6-1.5h7.9c-0.4,0.4-0.6,0.9-0.6,1.5
		c0,1.2,1,2.2,2.2,2.2c0.3,0,0.7-0.1,1-0.2L111.7,127.6z"/>
</g>
</svg>
